<svg xmlns="http://www.w3.org/2000/svg" viewBox="0 0 1605 835" width="1605" height="835">
	<defs>
		<clipPath clipPathUnits="userSpaceOnUse" id="cp1">
			<path d="M1064.25 373.4L1064.25 651.36L1400.59 839.32L1400.59 567.69L1064.25 373.4Z" />
		</clipPath>
		<linearGradient id="grd1" gradientUnits="userSpaceOnUse"  x1="20718.337" y1="29335.543" x2="30414.664" y2="8222.485">
			<stop offset="0" stop-color="#183994" stop-opacity="0" />
			<stop offset="100" stop-color="#183994"  />
		</linearGradient>
		<linearGradient id="grd2" gradientUnits="userSpaceOnUse"  x1="21316.325" y1="21339.064" x2="16674.859" y2="9728.948">
			<stop offset="0" stop-color="#282b8c" stop-opacity="0" />
			<stop offset="100" stop-color="#282b8c"  />
		</linearGradient>
		<linearGradient id="grd3" gradientUnits="userSpaceOnUse"  x1="15652.808" y1="19001.556" x2="21124.365" y2="6536.754">
			<stop offset="0" stop-color="#183994" stop-opacity="0" />
			<stop offset="100" stop-color="#183994" stop-opacity="0.94" />
			<stop offset="100" stop-color="#183994"  />
		</linearGradient>
		<clipPath clipPathUnits="userSpaceOnUse" id="cp2">
			<path d="M861.91 130L1197.76 130L1197.76 324.73L861.91 324.73L861.91 130Z" />
		</clipPath>
		<linearGradient id="grd4" gradientUnits="userSpaceOnUse"  x1="9795.795" y1="22758.599" x2="14203.228" y2="6339.706">
			<stop offset="0" stop-color="#183994" stop-opacity="0" />
			<stop offset="100" stop-color="#183994"  />
		</linearGradient>
		<clipPath clipPathUnits="userSpaceOnUse" id="cp3">
			<path d="M1014.92 324.73L1014.92 625.11L1197.76 517.7L1197.76 219.58L1014.92 324.73Z" />
		</clipPath>
		<linearGradient id="grd5" gradientUnits="userSpaceOnUse"  x1="10616.365" y1="25346.446" x2="7475.638" y2="219.575">
			<stop offset="0" stop-color="#282b8c" stop-opacity="0" />
			<stop offset="100" stop-color="#282b8c"  />
		</linearGradient>
		<clipPath clipPathUnits="userSpaceOnUse" id="cp4">
			<path d="M1400.15 567.76L1400.34 839.36L1604.92 715.47L1604.92 445.84L1400.15 567.76Z" />
		</clipPath>
		<linearGradient id="grd6" gradientUnits="userSpaceOnUse"  x1="12142.848" y1="24828.27" x2="8628.869" y2="445.842">
			<stop offset="0" stop-color="#282b8c" stop-opacity="0" />
			<stop offset="100" stop-color="#282b8c"  />
		</linearGradient>
		<linearGradient id="grd7" gradientUnits="userSpaceOnUse"  x1="1918.522" y1="-5670.123" x2="1770.126" y2="9570.307">
			<stop offset="0" stop-color="#183994" stop-opacity="0" />
			<stop offset="0" stop-color="#183994" stop-opacity="0.02" />
			<stop offset="100" stop-color="#183994"  />
		</linearGradient>
		<linearGradient id="grd8" gradientUnits="userSpaceOnUse"  x1="1441.57" y1="1610.678" x2="1441.57" y2="3628.989">
			<stop offset="0" stop-color="#183994" stop-opacity="0" />
			<stop offset="100" stop-color="#183994"  />
		</linearGradient>
		<linearGradient id="grd9" gradientUnits="userSpaceOnUse"  x1="1421.586" y1="1745.405" x2="1421.586" y2="3564.252">
			<stop offset="0" stop-color="#183994" stop-opacity="0" />
			<stop offset="100" stop-color="#183994"  />
		</linearGradient>
		<linearGradient id="grd10" gradientUnits="userSpaceOnUse"  x1="1350.006" y1="1968.414" x2="1350.006" y2="3457.672">
			<stop offset="0" stop-color="#183994" stop-opacity="0" />
			<stop offset="100" stop-color="#183994"  />
		</linearGradient>
		<clipPath clipPathUnits="userSpaceOnUse" id="cp5">
			<path d="M1422 220L1366.9 220L1366.9 367.71L1422 367.71L1422 220Z" />
		</clipPath>
		<clipPath clipPathUnits="userSpaceOnUse" id="cp6">
			<path d="M1421.77 220L1366.9 220L1366.9 255.89L1421.77 255.89L1421.77 220Z" />
		</clipPath>
		<clipPath clipPathUnits="userSpaceOnUse" id="cp7">
			<path d="M1417 223L1365.37 223L1365.37 368.01L1417 368.01L1417 223Z" />
		</clipPath>
		<clipPath clipPathUnits="userSpaceOnUse" id="cp8">
			<path d="M1304 287.42L1312.09 287.42L1312.09 294.25L1304 294.25L1304 287.42Z" />
		</clipPath>
		<clipPath clipPathUnits="userSpaceOnUse" id="cp9">
			<path d="M1304 285.83L1310.31 285.83L1310.31 289.01L1304 289.01L1304 285.83Z" />
		</clipPath>
		<clipPath clipPathUnits="userSpaceOnUse" id="cp10">
			<path d="M1271 259.1L1275.59 259.1L1275.59 272.8L1271 272.8L1271 259.1Z" />
		</clipPath>
		<clipPath clipPathUnits="userSpaceOnUse" id="cp11">
			<path d="M1271 266.33L1275.59 266.33L1275.59 270.22L1271 270.22L1271 266.33Z" />
		</clipPath>
		<clipPath clipPathUnits="userSpaceOnUse" id="cp12">
			<path d="M952.44 668.64L965.64 668.64L965.64 675.41L952.44 675.41L952.44 668.64Z" />
		</clipPath>
		<clipPath clipPathUnits="userSpaceOnUse" id="cp13">
			<path d="M1359.76 288L1372.27 288L1372.27 302.48L1359.76 302.48L1359.76 288Z" />
		</clipPath>
		<clipPath clipPathUnits="userSpaceOnUse" id="cp14">
			<path d="M1369.83 390.82L1383.3 390.82L1383.3 396.26L1369.83 396.26L1369.83 390.82Z" />
		</clipPath>
		<clipPath clipPathUnits="userSpaceOnUse" id="cp15">
			<path d="M1438.67 384L1456.57 384L1456.57 403.68L1438.67 403.68L1438.67 384Z" />
		</clipPath>
		<clipPath clipPathUnits="userSpaceOnUse" id="cp16">
			<path d="M1256.95 313.27L1259.74 313.27L1259.74 336.57L1256.95 336.57L1256.95 313.27Z" />
		</clipPath>
		<clipPath clipPathUnits="userSpaceOnUse" id="cp17">
			<path d="M1249.38 254L1262.56 254L1262.56 269.96L1249.38 269.96L1249.38 254Z" />
		</clipPath>
		<clipPath clipPathUnits="userSpaceOnUse" id="cp18">
			<path d="M1232 276.69L1258.41 276.69L1258.41 314.2L1232 314.2L1232 276.69Z" />
		</clipPath>
		<clipPath clipPathUnits="userSpaceOnUse" id="cp19">
			<path d="M1128 160.07L1121.02 160.07L1121.02 169.55L1128 169.55L1128 160.07Z" />
		</clipPath>
		<clipPath clipPathUnits="userSpaceOnUse" id="cp20">
			<path d="M0.09 821.05L129.72 893.75L129.72 774.47L0.09 698.95L0.09 821.05Z" />
		</clipPath>
		<linearGradient id="grd11" gradientUnits="userSpaceOnUse"  x1="7575.072" y1="12807.983" x2="11312.181" y2="3980.639">
			<stop offset="0" stop-color="#183994" stop-opacity="0" />
			<stop offset="100" stop-color="#183994"  />
		</linearGradient>
		<linearGradient id="grd12" gradientUnits="userSpaceOnUse"  x1="6934.101" y1="12856.297" x2="4708.323" y2="697.691">
			<stop offset="0" stop-color="#282b8c" stop-opacity="0" />
			<stop offset="100" stop-color="#282b8c"  />
		</linearGradient>
		<linearGradient id="grd13" gradientUnits="userSpaceOnUse"  x1="5485.322" y1="9095.561" x2="5485.322" y2="711.919">
			<stop offset="0" stop-color="#282b8c" stop-opacity="0" />
			<stop offset="100" stop-color="#282b8c"  />
		</linearGradient>
		<linearGradient id="grd14" gradientUnits="userSpaceOnUse"  x1="5813.29" y1="9740.527" x2="8033.504" y2="3159.568">
			<stop offset="0" stop-color="#183994" stop-opacity="0" />
			<stop offset="100" stop-color="#183994"  />
		</linearGradient>
	</defs>
	<style>
		tspan { white-space:pre }
		.shp0 { fill: url(#grd1) } 
		.shp1 { fill: #2747aa } 
		.shp2 { fill: url(#grd2) } 
		.shp3 { fill: url(#grd3) } 
		.shp4 { fill: #233175 } 
		.shp5 { fill: url(#grd4) } 
		.shp6 { fill: url(#grd5) } 
		.shp7 { fill: url(#grd6) } 
		.shp8 { fill: #17288e } 
		.shp9 { fill: #061a7c } 
		.shp10 { fill: #ffaeae } 
		.shp11 { fill: #f79c9c } 
		.shp12 { fill: url(#grd7) } 
		.shp13 { opacity: 0.6;fill: #ffffff } 
		.shp14 { fill: none;stroke: #ffffff;stroke-linecap:round;stroke-width: 2 } 
		.shp15 { fill: none;stroke: #4977ea;stroke-linecap:round;stroke-width: 2 } 
		.shp16 { fill: #ffffff } 
		.shp17 { fill: url(#grd8) } 
		.shp18 { fill: url(#grd9) } 
		.shp19 { fill: url(#grd10) } 
		.shp20 { fill: #c6d3e0 } 
		.shp21 { fill: #b0c1d1 } 
		.shp22 { fill: #4977ea } 
		.shp23 { opacity: 0.502;fill: #ffffff } 
		.shp24 { opacity: 0.302;fill: #ffffff } 
		.shp25 { opacity: 0.702;fill: #ffffff } 
		.shp26 { fill: #e29696 } 
		.shp27 { fill: #d67c7c } 
		.shp28 { fill: #2265d1 } 
		.shp29 { fill: #1a37ad } 
		.shp30 { fill: #8dafc6 } 
		.shp31 { fill: #7497a8 } 
		.shp32 { opacity: 0.2;fill: #4977ea } 
		.shp33 { opacity: 0.502;fill: #4977ea } 
		.shp34 { fill: #0d0436 } 
		.shp35 { fill: #b5c1e3 } 
		.shp36 { fill: #e2eaff } 
		.shp37 { fill: #000000 } 
		.shp38 { fill: #6c9dff } 
		.shp39 { fill: #442e2e } 
		.shp40 { fill: #c2d9f9 } 
		.shp41 { fill: #c47676 } 
		.shp42 { fill: #723b3b } 
		.shp43 { fill: #fbd4d1 } 
		.shp44 { fill: url(#grd11) } 
		.shp45 { fill: url(#grd12) } 
		.shp46 { fill: none;stroke: #6094fc } 
		.shp47 { opacity: 0.302;fill: #6b91d1 } 
		.shp48 { opacity: 0.502;fill: #7cb8ff } 
		.shp49 { fill: #7cb8ff } 
		.shp50 { fill: url(#grd13) } 
		.shp51 { fill: url(#grd14) } 
		.shp52 { fill: none;stroke: #c47676 } 
		.shp53 { opacity: 0.302;fill: #ffaeae } 
		.shp54 { opacity: 0.502;fill: #ffaeae } 
		.txt55 { font-size: 48px;fill: #000000;font-family: "DejaVu Sans";font-weight: 400 } 
		.txt56 { font-size: 30px;fill: #000000;font-family: "DejaVu Sans";font-weight: 400 } 
	</style>
	<g id="BASIC-LAYOUTS">
		<g id="ilu2">
			<g id="kv">
				<g id="Group-3">
					<g id="Clip-2">
					</g>
					<g id="Clip-Path: Fill-1" clip-path="url(#cp1)">
						<path id="Fill-1" class="shp0" d="M1064.25 373.4L1064.25 651.36L1400.59 839.32L1400.31 567.7L1064.25 373.4Z" />
					</g>
				</g>
				<path id="Fill-14" class="shp1" d="M1064 463.44L736.18 655.49L991.48 805.4L1321.81 612.72L1064 463.44Z" />
				<path id="Fill-18" class="shp2" d="M1321.79 762.67L1321.79 612.74L991.44 805.39L991.44 961.49L1321.79 762.67Z" />
				<path id="Fill-15" class="shp3" d="M736.18 800.86L991.45 950.57L991.45 805.4L736.18 655.43L736.18 800.86Z" />
				<g id="Group-26">
					<path id="Fill-21" fill-rule="evenodd" class="shp4" d="M1005.63 597.88C1006.27 597.88 1006.28 596.88 1005.63 596.88C1004.99 596.88 1004.99 597.88 1005.63 597.88Z" />
					<g id="Group-25">
						<g id="Clip-24">
						</g>
						<g id="Clip-Path: Fill-23" clip-path="url(#cp2)">
							<path id="Fill-23" class="shp1" d="M861.91 235.75L1014.92 324.73L1197.76 219.58L1042.19 130L861.91 235.75Z" />
						</g>
					</g>
				</g>
				<path id="Fill-27" class="shp5" d="M862.09 499.38L1014.98 598.07L1014.98 324.72L862.09 235.74L862.09 499.38Z" />
				<g id="Group-32">
					<g id="Clip-31">
					</g>
					<g id="Clip-Path: Fill-30" clip-path="url(#cp3)">
						<path id="Fill-30" class="shp6" d="M1014.92 324.73L1014.92 625.11L1197.76 517.7L1197.76 219.58L1014.92 324.73Z" />
					</g>
				</g>
				<path id="Fill-33" class="shp1" d="M1064 373.44L1269.97 253.03L1604.92 445.84L1400.34 567.74L1064 373.44Z" />
				<g id="Group-37">
					<g id="Clip-36">
					</g>
					<g id="Clip-Path: Fill-35" clip-path="url(#cp4)">
						<path id="Fill-35" class="shp7" d="M1400.34 567.73L1400.34 839.36L1604.92 715.47L1604.92 445.84L1400.34 567.73Z" />
					</g>
				</g>
				<path id="Fill-56" class="shp1" d="M1109.17 460.05L1160.34 489.87L1147.97 497.39L1096.2 467.99L1109.17 460.05Z" />
				<path id="Fill-58" class="shp8" d="M1096.21 467.99L1147.97 497.39L1147.97 512.12L1096.21 482.33L1096.21 467.99Z" />
				<path id="Fill-60" class="shp1" d="M1096.21 482.33L1147.97 512.12L1134.33 519.72L1082.7 490.05L1096.21 482.33Z" />
				<path id="Fill-62" class="shp8" d="M1082.7 490.05L1134.33 519.72L1134.45 534.55L1082.7 505.24L1082.7 490.05Z" />
				<path id="Fill-64" class="shp1" d="M1082.7 505.24L1134.45 534.55L1121.49 542.6L1070.51 512.68L1082.7 505.24Z" />
				<path id="Fill-66" class="shp8" d="M1070.51 512.68L1121.49 542.6L1121.72 557.41L1070.51 527.38L1070.51 512.68Z" />
				<path id="Fill-68" class="shp9" d="M1160.34 534.55L1121.49 557.41L1121.49 542.6L1134.45 534.55L1134.33 519.72L1147.97 512.12L1147.97 497.39L1160.34 489.87L1160.34 475.1L1173.31 467.57L1173.31 526.73L1160.34 534.55Z" />
				<path id="Fill-70" class="shp10" d="M1270.67 583.11L986.94 748.88L778.9 630.38L769.21 636.05L986.94 761.11L1280.62 588.87L1270.67 583.11Z" />
				<path id="Fill-72" class="shp11" d="M1270.67 583.11L1280.62 588.87L1280.62 498.58L1270.67 492.82L1270.67 583.11Z" />
				<path id="Fill-74" class="shp10" d="M1270.67 492.82L1347.69 447.47L1140.66 328.62L1148.02 324.32L1364.39 447.47L1280.62 498.58L1270.67 492.82Z" />
				<path id="Fill-76" class="shp12" d="M1270.67 583.11L1280.62 588.87L1280.62 498.58L1270.67 492.82L1270.67 583.11Z" />
				<path id="Fill-171" class="shp1" d="M1122.15 437.68L1173.31 467.5L1160.34 475.02L1109.18 445.61L1122.15 437.68Z" />
				<path id="Fill-173" class="shp8" d="M1109.18 445.61L1160.34 475.02L1160.34 489.79L1109.18 459.96L1109.18 445.61Z" />
				<g id="Group">
					<path id="Fill-56" class="shp1" d="M1153.34 291.37L1102.17 321.19L1114.53 328.71L1166.3 299.3L1153.34 291.37Z" />
					<path id="Fill-58" class="shp8" d="M1166.3 299.3L1114.53 328.71L1114.53 343.44L1166.3 313.65L1166.3 299.3Z" />
					<path id="Fill-60" class="shp1" d="M1166.3 313.65L1114.53 343.44L1128.17 351.03L1179.81 321.37L1166.3 313.65Z" />
					<path id="Fill-62" class="shp8" d="M1179.81 321.37L1128.17 351.03L1128.05 365.87L1179.81 336.56L1179.81 321.37Z" />
					<path id="Fill-64" class="shp1" d="M1179.81 336.56L1128.05 365.87L1141.02 373.92L1192 344L1179.81 336.56Z" />
					<path id="Fill-66" class="shp8" d="M1192 344L1141.02 373.92L1140.78 388.72L1192 358.7L1192 344Z" />
					<path id="Fill-68" class="shp9" d="M1102.17 365.87L1141.02 388.72L1141.02 373.92L1128.05 365.87L1128.17 351.03L1114.53 343.44L1114.53 328.71L1102.17 321.19L1102.17 306.41L1089.19 298.89L1089.19 358.05L1102.17 365.87Z" />
					<path id="Fill-171" class="shp1" d="M1140.36 269L1089.19 298.81L1102.17 306.34L1153.32 276.93L1140.36 269Z" />
					<path id="Fill-173" class="shp8" d="M1153.32 276.93L1102.17 306.34L1102.17 321.11L1153.32 291.28L1153.32 276.93Z" />
				</g>
				<path id="Fill-2" class="shp13" d="M774.54 492.66L774.54 581.56L878.32 520.57L878.32 431.19L774.54 492.66Z" />
				<path id="Stroke-4" fill-rule="evenodd" class="shp14" d="M781.54 501.46L833.43 471.32" />
				<path id="Stroke-5" fill-rule="evenodd" class="shp14" d="M781.61 543.22L815 523.24" />
				<path id="Stroke-6" fill-rule="evenodd" class="shp14" d="M781.61 558.89L804.73 545.05" />
				<path id="Stroke-7" fill-rule="evenodd" class="shp14" d="M781.61 551.35L808.77 535.09" />
				<path id="Stroke-8" fill-rule="evenodd" class="shp14" d="M781.61 534.84L808.77 518.59" />
				<path id="Stroke-9" fill-rule="evenodd" class="shp15" d="M781.61 526.76L814.34 507.17" />
				<path id="Stroke-10" fill-rule="evenodd" class="shp14" d="M781.61 508.76L807.03 493.54" />
				<g id="biurko">
					<path id="Stroke-11" class="shp16" d="M1341.19 284.53C1341.19 283.98 1341.63 283.53 1342.19 283.53C1342.74 283.53 1343.19 283.98 1343.19 284.53L1343.19 309.07C1343.19 309.62 1342.74 310.07 1342.19 310.07C1341.63 310.07 1341.19 309.62 1341.19 309.07L1341.19 284.53Z" />
					<path id="Stroke-11" class="shp17" d="M1341.19 284.53C1341.19 283.98 1341.63 283.53 1342.19 283.53C1342.74 283.53 1343.19 283.98 1343.19 284.53L1343.19 309.07C1343.19 309.62 1342.74 310.07 1342.19 310.07C1341.63 310.07 1341.19 309.62 1341.19 309.07L1341.19 284.53Z" />
					<path id="Stroke-12" class="shp16" d="M1304.72 304.7C1304.72 304.15 1305.16 303.7 1305.72 303.7C1306.27 303.7 1306.72 304.15 1306.72 304.7L1306.72 329.25C1306.72 329.8 1306.27 330.25 1305.72 330.25C1305.16 330.25 1304.72 329.8 1304.72 329.25L1304.72 304.7Z" />
					<path id="Stroke-12" class="shp18" d="M1304.72 304.7C1304.72 304.15 1305.16 303.7 1305.72 303.7C1306.27 303.7 1306.72 304.15 1306.72 304.7L1306.72 329.25C1306.72 329.8 1306.27 330.25 1305.72 330.25C1305.16 330.25 1304.72 329.8 1304.72 329.25L1304.72 304.7Z" />
					<path id="Stroke-13" class="shp16" d="M1249.62 274.44C1249.62 273.89 1250.07 273.44 1250.62 273.44C1251.18 273.44 1251.62 273.89 1251.62 274.44L1251.62 298.98C1251.62 299.54 1251.18 299.98 1250.62 299.98C1250.07 299.98 1249.62 299.54 1249.62 298.98L1249.62 274.44Z" />
					<path id="Stroke-13" class="shp19" d="M1249.62 274.44C1249.62 273.89 1250.07 273.44 1250.62 273.44C1251.18 273.44 1251.62 273.89 1251.62 274.44L1251.62 298.98C1251.62 299.54 1251.18 299.98 1250.62 299.98C1250.07 299.98 1249.62 299.54 1249.62 298.98L1249.62 274.44Z" />
					<path id="Fill-14" class="shp16" d="M1285.24 247.32L1246.11 270.91L1305.62 304.96L1345.83 281.9L1285.24 247.32Z" />
					<path id="Fill-15" class="shp20" d="M1246.11 270.91L1305.62 304.96L1305.62 307.14L1246.11 273.4L1246.11 270.91Z" />
					<path id="Fill-16" class="shp21" d="M1345.83 281.9L1305.62 304.96L1305.62 307.14L1345.83 284.41L1345.83 281.9Z" />
				</g>
				<path id="Fill-36" class="shp13" d="M834.72 498.25L834.72 558.35L885.58 528.12L885.97 468.47L834.72 498.25Z" />
				<path id="Fill-38" class="shp16" d="M843.72 505.25L843.72 565.35L894.58 535.12L894.97 475.47L843.72 505.25Z" />
				<path id="Fill-39" class="shp22" d="M951.08 434.49L951.08 494.58L987.2 473.12L987.2 412.57L951.08 434.49Z" />
				<path id="Fill-39" class="shp22" d="M1299 231.09L1299 171L1335.12 192.47L1335.12 253.02L1299 231.09Z" />
				<g id="Page-1">
					<path id="Fill-1" class="shp23" d="M1317.39 214.02L1322.18 216.63L1322.18 239.36L1317.39 236.52L1317.39 214.02Z" />
					<path id="Fill-2" class="shp24" d="M1325.19 241.04L1329.98 243.75L1329.98 209.96L1325.19 207.35L1325.19 241.04Z" />
					<path id="Fill-3" class="shp25" d="M1309.94 198.63L1314.73 201.24L1314.73 235.03L1309.94 232.32L1309.94 198.63Z" />
					<path id="Fill-4" class="shp16" d="M1303 189L1303 228.28L1307.79 231.05L1307.79 191.61L1303 189Z" />
				</g>
				<g id="pink-kubik">
					<path id="Fill-41" class="shp10" d="M973.1 187.69L992.08 198.45L973.1 209.67L954.26 198.68L973.1 187.69Z" />
					<path id="Fill-42" class="shp26" d="M973.17 227.69L954.26 217.22L954.26 198.68L973.1 209.67L973.17 227.69Z" />
					<path id="Fill-43" class="shp27" d="M992.08 198.45L973.1 209.67L973.17 227.69L992.08 216.63L992.08 198.45Z" />
				</g>
				<g id="blue-kubik">
					<path id="Fill-44" class="shp22" d="M907.94 654.03L926.93 664.8L907.94 676.01L889.1 665.02L907.94 654.03Z" />
					<path id="Fill-45" class="shp28" d="M908.02 694.03L889.1 683.57L889.1 665.02L907.94 676.01L908.02 694.03Z" />
					<path id="Fill-46" class="shp29" d="M926.93 664.8L907.94 676.01L908.02 694.03L926.93 682.97L926.93 664.8Z" />
				</g>
				<path id="Fill-47" class="shp20" d="M820.91 635.21L839.9 645.97L820.91 657.18L802.07 646.2L820.91 635.21Z" />
				<path id="Fill-48" class="shp30" d="M820.99 675.21L802.07 664.74L802.07 646.2L820.91 657.18L820.99 675.21Z" />
				<path id="Fill-49" class="shp31" d="M839.9 645.97L820.91 657.19L820.99 675.21L839.9 664.15L839.9 645.97Z" />
				<path id="Fill-62" class="shp32" d="M852.83 534.7L852.83 549.45L861.02 544.43L861.02 529.4L852.83 534.7Z" />
				<path id="Fill-64" class="shp33" d="M865.81 513.03L865.81 541.78L873.99 536.76L873.99 507.73L865.81 513.03Z" />
				<path id="Fill-67" class="shp22" d="M878.3 496.63L878.3 534.38L886.49 529.36L886.49 491.32L878.3 496.63Z" />
				<g id="kostka-1">
					<path id="Fill-129" class="shp20" d="M986.07 642.85L1005.62 653.94L986.07 665.48L966.68 654.17L986.07 642.85Z" />
					<path id="Fill-131" class="shp30" d="M986.15 684.04L966.68 673.26L966.68 654.17L986.07 665.48L986.15 684.04Z" />
					<path id="Fill-133" class="shp31" d="M1005.62 653.94L986.07 665.48L986.15 684.04L1005.62 672.65L1005.62 653.94Z" />
				</g>
				<g id="laptop">
					<path id="Fill-93" class="shp29" d="M1299.31 268.18L1281.8 257.93L1281.8 272.52L1299.31 282.93L1299.31 268.18Z" />
					<path id="Fill-95" class="shp34" d="M1298.15 268.64L1282.86 259.8L1282.86 272.12L1298.15 280.99L1298.15 268.64Z" />
					<path id="Fill-97" class="shp28" d="M1299.65 268.01L1299.31 268.18L1299.31 282.93L1299.65 282.43L1299.65 268.01Z" />
					<path id="Fill-99" class="shp22" d="M1281.8 257.93L1299.31 268.18L1299.65 268.01L1282.19 257.87L1281.8 257.93Z" />
					<path id="Fill-101" class="shp9" d="M1281.8 272.52L1270.19 279.12L1287.99 289.65L1299.31 282.93L1281.8 272.52Z" />
					<path id="Fill-103" class="shp22" d="M1281.8 272.52L1270.19 279.12L1287.99 289.65L1299.31 282.93L1281.8 272.52Z" />
					<path id="Fill-105" class="shp9" d="M1282.69 273.73L1276.3 277.37L1290.39 285.7L1296.63 282.02L1282.69 273.73Z" />
					<path id="Fill-107" class="shp28" d="M1299.31 282.93L1299.31 283.5L1288 290.23L1287.99 289.65L1299.31 282.93Z" />
					<path id="Fill-109" class="shp29" d="M1270.18 279.12L1287.99 289.65L1287.99 290.23L1270.18 279.71L1270.18 279.12Z" />
				</g>
				<g id="telefon">
					<g id="Group-3">
						<g id="Clip-2">
						</g>
						<g id="Clip-Path: Fill-1" clip-path="url(#cp5)">
							<path id="Fill-1" fill-rule="evenodd" class="shp35" d="M1366.9 223.51L1371.92 220.5L1371.92 220.52C1372.91 219.9 1374.21 219.78 1375.36 220.45L1420.34 245.47C1421.37 246.06 1422 247.16 1422 248.35L1422 361.89C1422 363.08 1421.4 364.06 1420.53 364.64L1420.53 364.65L1420.47 364.69C1420.35 364.76 1420.23 364.83 1420.11 364.89L1415.04 367.71L1415.17 363.71L1371.99 338.76C1370.99 338.16 1370.37 337.07 1370.37 335.9L1370.37 225.66L1366.9 223.51Z" />
						</g>
					</g>
					<g id="Group-6">
						<g id="Clip-5">
						</g>
						<g id="Clip-Path: Fill-4" clip-path="url(#cp6)">
							<path id="Fill-4" fill-rule="evenodd" class="shp16" d="M1370.37 225.66L1366.9 223.51L1371.92 220.5L1371.92 220.52C1372.91 219.9 1374.21 219.78 1375.36 220.45L1420.34 245.47C1421 245.85 1421.5 246.45 1421.77 247.14L1409.34 255.89L1370.37 232.41L1370.37 225.66Z" />
						</g>
					</g>
					<g id="Group-9">
						<g id="Clip-8">
						</g>
						<g id="Clip-Path: Fill-7" clip-path="url(#cp7)">
							<path id="Fill-7" fill-rule="evenodd" class="shp36" d="M1415.34 249.47L1370.36 223.45C1368.14 222.17 1365.37 223.77 1365.37 226.33L1365.37 337.9C1365.37 339.07 1365.99 340.16 1366.99 340.76L1411.97 367.53C1414.19 368.86 1417 367.26 1417 364.68L1417 252.35C1417 251.16 1416.37 250.06 1415.34 249.47Z" />
						</g>
					</g>
					<path id="Fill-10" class="shp29" d="M1415.1 261L1415.1 354.09L1367.66 326.26L1367.27 233.61L1415.1 261Z" />
					<path id="Fill-12" fill-rule="evenodd" class="shp35" d="M1390.93 343.75C1389.33 340.98 1386.63 339.55 1384.89 340.55C1383.15 341.56 1383.03 344.61 1384.63 347.38C1386.23 350.15 1388.94 351.58 1390.68 350.58C1392.41 349.57 1392.53 346.52 1390.93 343.75Z" />
					<path id="Fill-14" fill-rule="evenodd" class="shp35" d="M1395.73 245.54C1396.06 245.54 1396.39 245.37 1396.58 245.07C1396.87 244.6 1396.72 243.98 1396.25 243.69L1387.17 238.07C1386.7 237.78 1386.08 237.92 1385.79 238.39C1385.5 238.86 1385.64 239.48 1386.11 239.77L1395.2 245.39C1395.37 245.49 1395.55 245.54 1395.73 245.54Z" />
					<path id="Fill-16" class="shp22" d="M1410.05 325.82L1410.05 344.67L1392.15 334.61L1392.15 315.92L1410.05 325.82Z" />
					<path id="Fill-18" class="shp22" d="M1388.05 313.31L1388.05 332.16L1372.32 323.1L1372.32 304.41L1388.05 313.31Z" />
					<g id="Fill-20">
						<path id="path-23" class="shp37" d="M1410.05 302.82L1410.05 321.67L1392.15 311.61L1392.15 292.92L1410.05 302.82Z" />
						<path id="path-23" class="shp16" d="M1410.05 302.82L1410.05 321.67L1392.15 311.61L1392.15 292.92L1410.05 302.82Z" />
					</g>
					<path id="Fill-22" class="shp22" d="M1388.05 290.31L1388.05 309.16L1372.32 300.1L1372.32 281.41L1388.05 290.31Z" />
					<path id="Fill-24" class="shp22" d="M1410.05 264.63L1410.05 297.48L1372.32 275.73L1372.32 243.04L1410.05 264.63Z" />
				</g>
				<g id="Page-1">
					<path id="Fill-1" class="shp38" d="M1307 278.76L1317.53 272.92L1332.95 282.02L1322.35 288L1307 278.76Z" />
					<path id="Fill-2" class="shp20" d="M1317.35 287L1302 277.76L1312.53 271.92L1327.95 281.02L1317.35 287Z" />
				</g>
				<g id="kubek">
					<g id="Group-3">
						<g id="Clip-2">
						</g>
						<g id="Clip-Path: Fill-1" clip-path="url(#cp8)">
							<path id="Fill-1" fill-rule="evenodd" class="shp22" d="M1312.07 290.82C1311.89 292.09 1310.7 292.4 1309.59 292.51L1309.5 293.1C1309.5 293.1 1309.5 293.1 1309.5 293.1C1309.5 293.11 1309.5 293.11 1309.5 293.12L1309.48 293.25L1309.47 293.25C1309.32 293.81 1308.35 294.25 1307.16 294.25C1305.97 294.25 1305 293.81 1304.84 293.25L1304.83 293.25L1304.81 293.12C1304.81 293.11 1304.81 293.11 1304.81 293.1C1304.81 293.1 1304.81 293.1 1304.81 293.1L1304 287.42L1310.31 287.42L1310.13 288.74C1311.24 288.77 1312.23 289.59 1312.07 290.82ZM1310.01 289.55L1309.7 291.69C1310.25 291.64 1310.8 291.52 1311.08 291.12C1311.64 290.34 1310.83 289.48 1310.01 289.55Z" />
						</g>
					</g>
					<g id="Group-6">
						<g id="Clip-5">
						</g>
						<g id="Clip-Path: Fill-4" clip-path="url(#cp9)">
							<path id="Fill-4" fill-rule="evenodd" class="shp28" d="M1310.31 287.42C1310.31 288.3 1308.9 289.01 1307.16 289.01C1305.41 289.01 1304 288.3 1304 287.42C1304 286.54 1305.41 285.83 1307.16 285.83C1308.9 285.83 1310.31 286.54 1310.31 287.42Z" />
						</g>
					</g>
					<path id="Fill-7" fill-rule="evenodd" class="shp39" d="M1307.16 286.79C1305.75 286.79 1304.57 287.25 1304.16 287.9C1304.57 288.54 1305.75 289.01 1307.16 289.01C1308.57 289.01 1309.75 288.54 1310.15 287.9C1309.75 287.25 1308.57 286.79 1307.16 286.79Z" />
				</g>
				<g id="tablica">
					<path id="Fill-1" class="shp22" d="M1090.28 66L1193 126.24L1193 200.75L1089.68 140.61L1090.28 66Z" />
					<path id="Fill-2" class="shp40" d="M1177.92 155.82L1155.03 142.1L1155.03 146.09L1177.92 159.62L1177.92 155.82Z" />
					<path id="Fill-3" class="shp40" d="M1125.69 142.02L1110.04 132.75L1110.04 136.75L1125.69 145.82L1125.69 142.02Z" />
					<path id="Fill-4" class="shp16" d="M1125.69 135.81L1104.8 123.25L1104.8 127.25L1125.69 139.61L1125.69 135.81Z" />
					<path id="Fill-5" class="shp40" d="M1182.92 173.81L1162.03 161.25L1162.03 165.25L1182.92 177.61L1182.92 173.81Z" />
					<path id="Fill-6" class="shp40" d="M1177.92 148.82L1155.03 135.1L1155.03 139.09L1177.92 152.62L1177.92 148.82Z" />
					<path id="Fill-7" class="shp40" d="M1171.92 159.81L1156.11 150.38L1156.11 154.38L1171.92 163.61L1171.92 159.81Z" />
					<path id="Fill-8" class="shp40" d="M1182.92 144.81L1162.03 132.25L1162.03 136.25L1182.92 148.61L1182.92 144.81Z" />
					<path id="Fill-9" class="shp16" d="M1182.92 132.81L1151.63 114.21L1151.63 120.21L1182.92 138.61L1182.92 132.81Z" />
					<path id="Fill-10" fill-rule="evenodd" class="shp40" d="M1125.9 103.24C1120.57 94.02 1111.56 89.25 1105.77 92.6C1099.98 95.94 1099.6 106.13 1104.93 115.35C1110.25 124.57 1119.26 129.34 1125.06 126C1130.85 122.65 1131.22 112.46 1125.9 103.24Z" />
				</g>
				<g id="piwo">
					<g id="Group-3">
						<g id="Clip-2">
						</g>
						<g id="Clip-Path: Fill-1" clip-path="url(#cp10)">
							<path id="Fill-1" fill-rule="evenodd" class="shp41" d="M1275.04 263.83C1275.04 263.83 1275.04 263.83 1275.04 263.82C1274.45 263.32 1274.25 261.97 1274.22 261.72L1274.22 259.1L1272.37 259.1L1272.37 261.68C1272.37 261.68 1272.19 263.27 1271.55 263.82C1271.54 263.83 1271.54 263.84 1271.53 263.85C1271.21 264.15 1271 264.58 1271 265.05L1271 266.14L1271 270.95L1271 272.16C1271 272.17 1271 272.17 1271 272.17C1271.01 272.52 1272.03 272.8 1273.29 272.8C1274.56 272.8 1275.58 272.52 1275.59 272.17C1275.59 272.17 1275.59 272.17 1275.59 272.16L1275.59 271.03L1275.59 266.23L1275.59 265.05C1275.59 264.57 1275.38 264.14 1275.04 263.83Z" />
						</g>
					</g>
					<path id="Fill-4" fill-rule="evenodd" class="shp10" d="M1274.22 259.1C1274.22 259.25 1273.81 259.37 1273.29 259.37C1272.78 259.37 1272.37 259.25 1272.37 259.1C1272.37 258.95 1272.78 258.83 1273.29 258.83C1273.81 258.83 1274.22 258.95 1274.22 259.1Z" />
					<path id="Fill-6" fill-rule="evenodd" class="shp42" d="M1274.07 259.1C1274.07 259.21 1273.72 259.29 1273.29 259.29C1272.87 259.29 1272.52 259.21 1272.52 259.1C1272.52 259 1272.87 258.91 1273.29 258.91C1273.72 258.91 1274.07 259 1274.07 259.1Z" />
					<g id="Group-10">
						<g id="Clip-9">
						</g>
						<g id="Clip-Path: Fill-8" clip-path="url(#cp11)">
							<path id="Fill-8" fill-rule="evenodd" class="shp10" d="M1275.59 267.38L1275.59 266.33L1275.56 266.33C1274.93 266.54 1274.15 266.67 1273.29 266.67C1272.44 266.67 1271.66 266.54 1271.03 266.33L1271 266.33L1271 267.38L1271 269.88C1271.63 270.09 1272.42 270.22 1273.29 270.22C1274.17 270.22 1274.96 270.09 1275.59 269.88L1275.59 267.38Z" />
						</g>
					</g>
				</g>
				<path id="Fill-1" fill-rule="evenodd" class="shp16" d="M914.37 619.18C914.37 619.18 909.39 617.45 908.8 617.45C908.2 617.45 906.54 617.32 905.88 617.78C905.21 618.25 903.89 618.91 905.88 620.9C907.87 622.89 912.44 626.81 914.37 627.07C916.29 627.34 918.95 627.34 918.48 624.75C918.02 622.16 914.37 619.18 914.37 619.18Z" />
				<path id="Fill-3" fill-rule="evenodd" class="shp9" d="M952.31 631.23C952.31 631.23 952.76 633.08 951.96 634.55C951.17 636.01 941.45 638.67 938.71 638.41C935.97 638.16 931.61 635.16 930.24 633.8C928.87 632.43 923.71 620.46 923.71 620.46C923.71 620.46 919.3 625.33 917.93 625.67C916.56 626.01 913.31 624.56 912.97 623.79C912.63 623.02 913.31 618.92 913.31 618.92C913.31 618.92 920.49 608.14 921.78 607.37C923.06 606.6 925.2 606.77 925.88 607.37C926.57 607.97 929.05 610.45 929.05 610.45C929.05 610.45 928.62 607.2 928.96 606.86C929.3 606.52 930.24 605.4 932.12 605.83C934.01 606.26 934.42 605.83 935.58 606.86C936.74 607.88 941.36 611.9 941.36 611.9L952.31 631.23Z" />
				<path id="Fill-5" fill-rule="evenodd" class="shp43" d="M953.55 600.01C953.09 599.39 952.71 598.71 952.39 598.01C952.37 597.87 952.35 597.72 952.32 597.58C952.47 596.15 952.61 594.73 952.76 593.31C952.83 592.59 952.09 592.22 951.53 592.41C951.33 591.36 950.99 590.32 950.34 589.27C949.48 587.87 948.02 585.96 946.12 586.39C945.93 586.43 945.76 586.5 945.58 586.57C945.36 586.06 944.74 585.74 944.23 586.23C942.62 587.76 942.11 589.6 941.95 591.57C941.95 591.57 941.46 593.35 941.19 594.45C941.07 594.95 940.82 595.54 941.99 595.96C942.12 597.15 942.13 598.99 943.24 599.71C943.94 600.16 944.65 600.17 945.76 599.99C945.95 601.11 946.66 602.15 946.95 603.24C947.22 604.22 948.64 604.07 948.73 603.24C950.07 602.32 951.41 601.78 953.03 601.47C953.74 601.34 953.91 600.55 953.55 600.01Z" />
				<path id="Fill-7" fill-rule="evenodd" class="shp34" d="M954.1 587.03C953.64 585.35 951.26 584.69 949.77 584.38C947.99 584.01 943.35 583.7 941.91 587.42C941.9 587.42 941.9 587.43 941.9 587.43C941.73 587.63 942.2 588.22 942.29 588.3C942.77 589.21 943.71 589.95 944.6 590.38C945.87 591 946.8 591.11 946.84 593.03C946.87 593.9 946.56 594.46 946.99 595.29C947.63 596.53 950.64 598.3 951.95 598.35C953.36 598.41 953.02 596.21 953.13 595.23C953.31 593.65 953.52 592.07 953.83 590.51C954.01 589.57 954.36 587.99 954.1 587.03Z" />
				<path id="Fill-9" fill-rule="evenodd" class="shp43" d="M978.52 633.14C977.38 632.09 975.57 632.12 974.1 631.61C974.71 631.53 975.34 631.5 975.88 631.29C976.27 631.14 976.39 631.05 976.53 630.66C976.58 630.53 976.48 630.33 976.33 630.31C974.74 630.08 973.1 630.32 971.51 630.42C970.95 630.45 970.44 630.45 969.95 630.72C969.37 631.06 968.85 631.68 968.36 632.12C968.23 632.24 968.25 632.39 968.34 632.49C968.19 632.55 968.08 632.71 968.2 632.88C969.56 634.8 971.87 634.73 974.05 634.97C974.9 635.07 976.71 635.57 977.5 635.17C978 634.92 978.45 633.93 978.6 633.43C978.63 633.33 978.6 633.21 978.52 633.14Z" />
				<path id="Fill-11" fill-rule="evenodd" class="shp34" d="M966.95 622.4C966.92 622.35 966.89 622.3 966.86 622.24C966.81 622.17 966.78 622.09 966.74 622.02L966.53 621.64L966.53 621.63C965.4 619.42 964.8 617.06 964.05 614.69C962.54 610.8 959.99 603.31 959.49 602.94C959.07 602.63 956.86 601.45 955.33 600.66C952.82 600.28 950.29 601.01 947.42 602.18C943.34 603.85 940.26 606.6 939.1 610.94C938.37 613.66 937.84 616.46 937.22 619.21C936.68 621.57 935.75 624.12 935.59 626.53C935.33 630.61 939.55 634.14 942.9 635.32C947.1 635.75 951 634.25 951 634.25C954.39 631.59 953.13 628.96 954.13 625.79C955.08 622.76 956.37 619.88 957.3 616.89C958.88 620.38 960.74 623.69 962.74 626.94C964.38 628.97 966.45 631.52 968.09 633.53C968.7 633.43 969.28 633.23 969.81 632.8C970.16 632.52 970.5 632.2 970.78 631.85C971.05 631.53 971.12 631.07 971.33 630.72C971.37 630.69 971.4 630.65 971.44 630.61L966.95 622.4Z" />
				<path id="Fill-13" fill-rule="evenodd" class="shp43" d="M940.03 642.61C940.01 642.59 939.99 642.57 939.97 642.55L939.97 642.55C939.94 642.52 939.91 642.49 939.86 642.47C939.11 642.12 938.1 641.63 937.22 641.72C937.1 641.66 936.97 641.64 936.82 641.7C936.67 641.68 936.51 641.72 936.4 641.84C935.32 642.23 934.16 642.26 933.01 642.34C932.52 642.37 931.52 642.29 931.54 643.05C931.55 643.71 932.27 643.75 932.75 643.79C933.28 643.84 933.87 643.95 934.45 643.99C933.24 644.73 931.84 645.29 931.26 646.68C930.85 647.66 930.88 649.05 932.17 649.13C935.68 649.34 938.97 646.04 940.11 643.03C940.18 642.85 940.13 642.71 940.03 642.61Z" />
				<path id="Fill-15" fill-rule="evenodd" class="shp34" d="M941.86 616.97C941.88 617.19 935.96 641.79 935.96 641.79C935.96 641.79 937.87 643.38 939.84 643.46C941.81 643.53 946.55 624.56 946.55 624.56L941.86 616.97Z" />
				<path id="Fill-17" fill-rule="evenodd" class="shp34" d="M955.59 601.2L953.71 599.58C953.71 599.58 948.61 600.23 947.08 601.64C945.55 603.06 944.74 605.44 944.74 605.44L955.59 601.2Z" />
				<path id="Fill-19" fill-rule="evenodd" class="shp34" d="M922.3 638.99C922.61 637.28 922.43 635.65 921.94 633.99C921.53 632.63 921.06 630.89 920.32 629.59C920.28 629.26 920.04 628.92 919.7 628.79C919.26 628.52 918.67 628.72 918.42 629.1L904.56 635.66C904.42 635.43 904.19 635.24 903.85 635.22C898.33 634.76 892.76 634.39 887.36 635.87C887.25 635.9 887.16 635.94 887.08 636C886.05 636.36 885.21 636.99 885.08 638.08C884.85 640.11 886.7 641.98 888.17 643.07C890.31 644.67 892.78 645.97 895.22 647.05C897.78 648.17 900.35 648.58 903.02 649.27C904.27 649.6 905.43 650.12 906.71 650.3C908 650.47 909.29 650.38 910.56 650.13C913.15 649.63 915.94 648.64 918.24 647.35C920.47 646.11 921.93 644.15 922.28 641.61C922.4 640.74 922.39 639.89 922.28 639.05C922.29 639.03 922.29 639.01 922.3 638.99Z" />
				<path id="Fill-21" fill-rule="evenodd" class="shp22" d="M920.44 623.18C919.7 619.54 918.86 615.44 915.49 613.36C915.41 613.25 915.29 613.17 915.13 613.15C914.94 613.06 914.75 613.08 914.61 613.17C913.23 613.3 912.01 613.86 910.68 614.23C909.03 614.69 907.28 614.74 905.58 614.84C905.41 614.71 905.18 614.66 904.94 614.79C901.74 616.53 900.09 619.12 898.2 622.07C897.1 623.78 896.08 625.12 894.81 626.7C893.39 628.48 892.22 629.42 891.16 630.86C890.37 631.94 889.68 634.26 890.38 635.47C891.02 636.6 893.6 635.45 894.59 635.07C897.59 633.92 898.8 631.81 901.28 629.74C901.7 631.78 902.13 633.82 902.55 635.86C902.71 636.62 902.74 637.87 903.07 638.83C903.08 640.1 904.53 640.84 905.62 641.28C907.4 642.01 909.38 642.03 911.24 641.61C914.68 640.83 918.5 638.67 920.01 635.34C921.66 631.71 921.21 626.98 920.44 623.18Z" />
				<path id="Fill-23" fill-rule="evenodd" class="shp10" d="M903.23 609.97C902.91 607.68 901.03 605.83 899.56 604.18C899.53 604.14 899.49 604.11 899.44 604.08C899.45 603.44 899.5 602.79 899.57 602.1C899.59 601.81 899.44 601.63 899.23 601.57C898.98 602.07 898.78 602.65 898.61 603C898.41 603.43 898.35 603.6 898.26 604.05C898.25 604.47 898.21 605.17 898.28 605.59C898.35 606.04 898.47 606.48 898.61 606.93C898.49 607.79 898.38 608.93 898.58 609.76C898.71 610.31 899.45 609.97 899.64 610.63C899.8 611.5 899.95 612.39 900.29 613.17C900.55 613.76 900.93 614.15 901.61 614.15C903.92 614.16 903.44 611.48 903.23 609.97Z" />
				<path id="Fill-25" fill-rule="evenodd" class="shp34" d="M914.96 611.94C914.6 611.48 914.03 611.18 913.74 610.67C913.24 609.79 913.66 608.8 913.55 607.88C913.4 606.69 912.63 605.61 912.07 604.58C911.37 603.28 910.74 601.83 909.82 600.66C908.46 598.91 906.21 598.35 904.08 598.43C902.66 598.48 901.19 598.82 900.19 599.69C899.1 600.43 898.37 601.66 898.32 603.04C898.28 604.11 898.63 605.17 899.22 606.05C900.01 607.2 901.66 607.79 902.02 609.2C902.36 610.58 901.59 612.04 901.73 613.44C901.83 614.44 902.32 615.36 903.14 615.96C904.19 616.74 905.61 616.84 906.77 617.42C907.1 617.59 907.39 617.83 907.76 617.91C908.56 618.07 909.6 617.69 910.41 617.58C912.41 617.32 914.89 616.6 915.42 614.35C915.62 613.51 915.49 612.63 914.96 611.94Z" />
				<path id="Fill-27" fill-rule="evenodd" class="shp10" d="M1104.74 560.36C1104.26 559.79 1103.84 559.18 1103.48 558.54C1103.44 558.4 1103.41 558.26 1103.38 558.12C1103.4 556.75 1103.42 555.38 1103.45 554.01C1103.46 553.32 1102.72 553.03 1102.2 553.26C1101.93 552.27 1101.52 551.3 1100.81 550.35C1099.88 549.08 1098.33 547.38 1096.55 547.93C1096.37 547.99 1096.21 548.07 1096.05 548.15C1095.79 547.69 1095.17 547.43 1094.72 547.93C1093.31 549.53 1092.86 551.33 1092.86 553.23C1092.52 554.27 1092.27 555.35 1092.21 556.44C1092.15 557.35 1092.64 557.39 1093.38 557.42C1093.6 558.54 1093.75 560.3 1094.87 560.9C1095.58 561.27 1096.71 561.12 1097.76 560.86C1098.03 561.91 1098.33 562.95 1098.7 563.97C1099.04 564.88 1100.38 564.63 1100.41 563.83C1101.61 562.84 1102.84 562.21 1104.36 561.79C1105.03 561.6 1105.14 560.84 1104.74 560.36Z" />
				<path id="Fill-29" fill-rule="evenodd" class="shp34" d="M1104.27 548.46C1103.69 546.89 1101.36 546.45 1099.92 546.27C1098.18 546.07 1091.73 546.67 1092.6 549.27C1092.6 549.27 1092.6 549.27 1092.6 549.27C1092.45 549.47 1092.58 549.73 1092.75 549.86C1092.85 549.93 1092.95 550 1093.04 550.07C1093.57 550.9 1094.53 551.54 1095.42 551.88C1096.68 552.36 1097.57 552.4 1097.77 554.23C1097.87 555.06 1097.62 555.61 1098.1 556.38C1098.81 557.51 1101.83 558.95 1103.08 558.9C1104.43 558.84 1103.93 556.76 1103.95 555.82C1104 554.29 1104.08 552.77 1104.24 551.25C1104.34 550.34 1104.6 549.35 1104.27 548.46Z" />
				<path id="Fill-31" fill-rule="evenodd" class="shp43" d="M1089.28 599.22C1089.07 599.07 1088.87 599.17 1088.77 599.34C1088.79 598.93 1088.13 598.78 1087.98 599.23C1087.53 600.67 1087.07 602.1 1086.62 603.54C1086.37 604.36 1086.03 605.2 1086.32 606.05C1086.66 607.02 1088.31 608.83 1089.5 608.31C1089.9 608.14 1090.11 607.76 1090.2 607.36C1090.3 606.93 1090.19 606.71 1090.14 606.27C1090.01 605.1 1090.16 604.57 1090.49 603.56C1091.1 601.68 1090.93 600.4 1089.28 599.22Z" />
				<path id="Fill-33" fill-rule="evenodd" class="shp34" d="M1107.01 651.52C1106.72 651.55 1106.43 651.56 1106.14 651.59C1105.35 651.67 1104.65 651.82 1104.07 652.36C1101.75 652.7 1099.5 653.32 1097.28 654.1C1095.75 654.63 1092.54 655.14 1091.93 656.92C1091.83 657.19 1092.07 657.41 1092.31 657.43C1096.87 657.87 1101.56 658.24 1106.14 658C1107.01 657.96 1107.46 657.64 1107.65 657.16C1108.15 655 1107.57 652.89 1107.01 651.52Z" />
				<path id="Fill-35" fill-rule="evenodd" class="shp34" d="M1110.63 647.9C1110.63 647.9 1111.53 651.29 1111.22 652.69C1110.9 654.09 1097.59 652.96 1097.59 652.96C1097.59 652.96 1096.91 652.12 1098.04 651.52C1099.17 650.93 1105.93 647.41 1105.93 647.41L1110.63 647.9Z" />
				<path id="Fill-37" fill-rule="evenodd" class="shp22" d="M1107.76 652.89C1107.09 652.9 1106.45 652.92 1105.93 652.99C1104.13 653.22 1101.7 653.22 1101.11 652.99C1100.66 652.81 1095.8 636.89 1093.58 629.56C1093.66 628.1 1093.96 626.67 1094.33 625.21C1095.02 622.52 1095.69 619.83 1096.25 617.11C1097.48 611.2 1098.35 605.22 1098.88 599.21C1098.92 598.79 1099.46 598.72 1099.63 598.99C1103.62 599.07 1107.66 598.65 1111.57 599.47C1111.62 599.38 1111.67 599.3 1111.73 599.24C1112.48 598.03 1114.74 598.3 1114.69 600.04C1114.68 600.52 1114.65 601 1114.63 601.48C1114.84 607.7 1115.22 613.99 1114.77 620.2C1114.71 621.13 1114.62 622.05 1114.52 622.96C1114.52 623.01 1114.52 623.06 1114.52 623.11C1113.99 626.81 1111.33 647.63 1111.22 648.48C1109.92 649.47 1106.72 648.48 1106.72 648.48L1107.76 652.89ZM1105.83 615.91C1105.83 615.91 1101.9 628.65 1102.02 630.33C1102.14 632 1103.92 640.05 1103.92 640.05L1104.93 644.52C1104.93 644.52 1105.6 633.01 1105.83 630.21C1106.05 627.42 1105.83 615.91 1105.83 615.91Z" />
				<path id="Fill-39" fill-rule="evenodd" class="shp34" d="M1116.18 587.6C1116.18 583.53 1115.93 579.46 1115.43 575.42C1115.07 572.55 1114.97 569.16 1113.45 566.62C1112.02 564.27 1109.81 562.87 1107.69 561.19C1107.24 560.84 1105.63 560.61 1104.87 560.63C1100.65 561.33 1097.67 562.59 1096.21 567.1C1095.24 570.11 1095.15 573.64 1094.7 576.75L1093.43 585.56C1092.4 587.99 1091.39 590.43 1090.43 592.9C1089.74 594.67 1087.55 598.47 1087.67 600.38C1087.67 600.39 1087.67 600.4 1087.67 600.41C1088.53 601.64 1089.46 602.54 1091.01 603.15C1091.12 603.19 1091.23 603.22 1091.33 603.26C1091.54 603.23 1093.92 600.84 1094.54 599.98C1095.59 598.5 1096.7 597.04 1097.54 595.43C1097.68 597.39 1097.88 599.34 1098.15 601.29C1098.2 601.65 1098.6 601.86 1098.92 601.88C1104.1 602.24 1109.26 602.28 1114.44 601.98C1114.89 601.96 1115.9 601.66 1115.83 601.26C1115.2 597.37 1116.18 591.57 1116.18 587.6Z" />
				<path id="Fill-55" fill-rule="evenodd" class="shp10" d="M923.27 485.81C923.87 483.88 924.05 481.73 923.62 480.09C923 477.74 920.26 476.48 917.98 477.2C917.2 477.44 916.62 478.02 916.2 478.78C915.7 478.19 914.62 478.15 914.49 479.09C914.01 482.57 914.27 486.48 916.06 489.61C916.45 490.29 916.91 490.71 917.42 490.92C917.23 492.21 915.26 494.05 917 494.35C917.39 494.42 919.75 494.9 920.04 494.82C920.38 494.87 921.03 494.67 921.37 494.61C922.25 494.55 923.87 493.83 924.23 493.16C925.32 492.22 923.28 490.99 923.29 487.81C923.29 487.14 923.28 486.47 923.27 485.81Z" />
				<path id="Fill-57" fill-rule="evenodd" class="shp34" d="M923.02 487.03C922.91 485.94 923.09 484.83 922.99 483.74C922.88 482.46 922.48 481.21 922.19 479.96C922.17 479.87 922.14 479.74 922.1 479.6C921.98 479.65 921.84 479.69 921.68 479.65C920.56 479.42 919.69 480.26 918.66 480.5C918.04 480.65 917.27 480.68 916.63 480.61C915.45 480.48 913.97 479.98 913.25 479C912.97 478.61 913.29 478.15 913.66 478.01C914.56 477.66 915.03 476.36 915.95 475.87C916.59 475.53 917.4 475.28 918.12 475.19C920.1 474.93 921.92 474.8 923.34 476.16C924.21 476.99 925.14 479.06 925.32 480.18C925.15 482.55 923.87 486.43 923.33 488.46C922.98 488.48 923.06 487.44 923.02 487.03ZM920.25 476.77C920.21 476.76 920.17 476.74 920.13 476.73C920.13 476.76 920.11 476.78 920.11 476.8C920.13 476.8 920.15 476.79 920.17 476.78C920.2 476.78 920.23 476.78 920.25 476.77Z" />
				<path id="Fill-59" fill-rule="evenodd" class="shp10" d="M924.13 481.89C923.94 481.27 923.43 480.85 922.76 480.85C922 480.85 921.56 481.52 921.52 482.22C921.49 482.77 921.85 483.07 922.27 483.15C922.23 483.39 922.14 483.63 921.99 483.78C921.11 484.72 922.52 486.13 923.4 485.2C924.24 484.31 924.48 483.05 924.13 481.89Z" />
				<path id="Fill-61" fill-rule="evenodd" class="shp34" d="M914.56 563.71C914.56 563.71 915.38 564.84 913.19 566.67C911 568.51 907.71 570.42 907.35 571.52C906.98 572.61 907.07 574.53 913 571.98C918.93 569.42 919.39 569.88 919.57 567.69C919.75 565.5 918.48 562.57 918.48 562.57L914.56 563.71Z" />
				<path id="Fill-63" fill-rule="evenodd" class="shp34" d="M927.19 568.21C927.19 568.21 927.69 571.96 927.51 573.24C927.33 574.53 926.23 576.53 926.51 578.18C926.8 579.83 929.43 581.55 931.16 578.18C932.89 574.8 931.98 570.31 930.61 566.67C929.24 563.03 927.19 568.21 927.19 568.21Z" />
				<path id="Fill-65" fill-rule="evenodd" class="shp16" d="M910.07 520.4C910.07 520.4 910.78 536.85 912.67 549.16C914.56 561.46 914.56 563.71 914.56 563.71C914.56 563.71 918.29 565.84 919.53 563.71C919.2 557.65 918.47 546.36 918.35 541.31C918.23 536.26 918.11 527.5 918.11 527.5C918.11 527.5 920.48 542.53 921.43 546.55C922.37 550.58 926.51 568.21 926.51 568.21C926.51 568.21 929.59 570.47 931.48 566.67C931 560.23 928.76 547.54 928.76 541.31C928.76 535.08 927.76 532.28 928.05 520.4C917.38 519.68 910.07 520.4 910.07 520.4Z" />
				<path id="Fill-67" fill-rule="evenodd" class="shp10" d="M929.27 506.86C929.27 506.86 930.73 511.09 930.54 511.97C930.35 512.86 924.99 520.59 924.99 520.59C924.99 520.59 925.61 523.54 926.81 523.98C930.16 520.31 935.73 513.49 935.85 512.67C935.97 511.85 934.79 504.45 934.79 504.45L929.27 506.86Z" />
				<path id="Fill-69" fill-rule="evenodd" class="shp10" d="M906.97 504.17L904.57 510.07L895.34 507.42C894.22 506.46 893.51 504.81 892.54 503.81C892.37 503.63 891.84 503.45 891.8 503.46C891.66 503.52 891.61 504.21 891.62 504.37C891.64 504.67 892.2 506.31 892.42 506.15C892.24 506.29 890.76 505.53 890.47 505.42C889.64 505.13 888.42 504.63 887.53 504.74C887.28 504.77 886.62 505.57 886.63 505.86C886.75 507.87 888.49 509.1 890.39 509.72C891.66 510.14 892.93 510.38 894.21 510.62C898.09 512.22 905.02 515.47 905.76 515.31C906.95 515.04 913.68 506.22 913.68 506.22L906.97 504.17Z" />
				<path id="Fill-71" fill-rule="evenodd" class="shp34" d="M933 496.28C931.42 492.84 927.94 491.96 924.42 491.29C924.33 491.28 924.25 491.28 924.17 491.3C923.7 492.65 922.81 494.05 921.11 494.26C918.5 494.58 917.38 492.81 917 491.95C915.4 492.24 912.91 492.55 911.65 493.49C909.92 494.77 909.32 497.72 908.39 499.59C907.7 501.62 906.86 503.85 906.02 505.52C906.71 507.02 909.15 507.92 910.51 508.35L910.51 508.35C910.44 509.42 910.39 510.48 910.28 511.42C909.89 514.63 909.04 519.84 909.66 523.04C909.72 523.39 909.84 523.65 909.99 523.87C915.3 524.98 922.32 522.1 922.32 522.1L922.32 522.1C923.21 521.64 924.13 521.21 925.1 521.03C926.22 519.26 928.26 515.98 929.07 514.51C929.1 513.37 928.62 511.55 928.53 510.48C928.4 509.12 928.27 507.75 928.13 506.38C928.25 506.64 928.37 506.9 928.48 507.16C928.75 507.77 928.89 508.19 929.57 508.37C929.99 508.48 930.42 508.51 930.85 508.47C933.52 507.86 935.04 506.64 935.85 505.72C935.2 502.58 934.34 499.19 933 496.28Z" />
				<path id="Fill-123" fill-rule="evenodd" class="shp43" d="M1041.73 506.87C1041.16 503.95 1039.52 500.72 1038.14 498.08C1037.39 496.64 1036.03 493.97 1034.44 493.41C1033.77 493.17 1034.18 492.3 1033.86 492.6C1033.33 492.35 1031.91 492.95 1031.83 493.73C1031.68 495.18 1031.42 497.3 1031.61 498.78C1031.56 499.19 1031.51 499.6 1031.46 500.02C1031.4 500.57 1031.24 501.19 1031.28 501.74C1031.33 502.31 1031.74 502.35 1032.22 502.34C1032.27 502.62 1032.33 502.91 1032.39 503.19C1032.74 504.95 1033.71 505.67 1034.91 505.69C1034.97 506.5 1035.01 507.6 1035.43 508.36C1035.45 508.44 1035.46 508.52 1035.48 508.6C1035.59 509.15 1036.14 509.34 1036.61 509.23C1038.02 509.51 1039.56 508.14 1040.84 508.05C1041.47 508 1041.85 507.49 1041.73 506.87Z" />
				<path id="Fill-125" fill-rule="evenodd" class="shp34" d="M1047.01 585.87C1046.97 585.71 1046.79 585.62 1046.63 585.66C1045.29 585.98 1043.95 586.3 1042.62 586.62C1042.54 586.57 1042.44 586.57 1042.34 586.64C1040.71 587.74 1033.99 586.88 1033.44 589.27C1033.41 589.4 1033.46 589.56 1033.59 589.62C1036.93 591.34 1043.65 591.77 1047.3 590.87C1047.43 590.83 1047.53 590.7 1047.53 590.57C1047.56 588.97 1047.39 587.43 1047.01 585.87Z" />
				<path id="Fill-127" fill-rule="evenodd" class="shp34" d="M1034.93 597.44C1034.91 596.65 1034.88 595.86 1034.85 595.07C1034.85 595.05 1034.85 595.03 1034.85 595C1034.84 594.99 1034.84 594.99 1034.84 594.98C1034.83 594.72 1034.57 594.63 1034.39 594.71C1033.28 594.44 1032.17 594.24 1031.06 594.54C1031 594.52 1030.94 594.51 1030.86 594.54C1029.21 595.12 1025.58 595.48 1023.85 595.74C1023.15 595.84 1022.39 595.88 1021.91 596.46C1020.81 597.8 1022.54 598.6 1023.58 598.92C1025.91 599.66 1030.44 600.05 1032.88 599.71C1033.46 599.63 1034.52 599.63 1034.89 599.08C1035.15 598.67 1034.95 597.86 1034.93 597.44Z" />
				<path id="Fill-129" fill-rule="evenodd" class="shp9" d="M1047.71 539.47C1047.72 539.05 1047.49 538.78 1047.2 538.66C1047 538.41 1046.68 538.24 1046.29 538.29C1041.34 538.97 1036.4 538.79 1031.43 539.45C1031.4 539.45 1031.37 539.46 1031.33 539.47C1030.82 539.38 1030.21 539.67 1030.16 540.34C1029.64 547.54 1029.4 565.25 1029.48 572.46L1029.48 572.44L1029.46 594.84L1030.51 595.4C1032.3 596.34 1033.7 596.18 1034.67 595.77C1035.58 594.44 1035.39 592.6 1035.48 591C1035.69 587.43 1035.97 583.86 1036.33 580.3C1036.92 574.48 1037.94 561.7 1038.95 555.94C1039.05 556.86 1039.41 565.7 1039.41 565.7C1039.57 567.11 1040.77 580.32 1041.57 587.09C1044.32 588.53 1046.34 586.92 1047.22 585.95C1047.19 584.21 1047.16 582.46 1047.13 580.72C1048 570.55 1047.57 549.63 1047.71 539.47Z" />
				<path id="Fill-131" fill-rule="evenodd" class="shp26" d="M1049.31 529.39C1049.69 525.78 1049.77 522.36 1049.16 518.76C1048.76 516.4 1048.35 513.64 1047.45 511.21C1046.52 509.6 1045.34 508.2 1043.78 506.97C1042.39 506.62 1040.89 506.82 1039.34 507.21C1036.31 507.98 1032.76 509.17 1030.79 511.73C1028.79 514.32 1028.87 534.43 1029.76 532.86C1029.68 535.02 1029.63 537.17 1029.61 539.33C1029.6 541.68 1029.06 543.59 1031.18 544.95C1034.97 547.41 1039.74 546.11 1043.58 543.99C1045.6 543.33 1047.78 542.32 1048.51 540.7C1049.05 539.48 1048.72 537.54 1048.78 536.23C1048.88 533.95 1049.07 531.67 1049.31 529.39Z" />
				<path id="Fill-133" fill-rule="evenodd" class="shp10" d="M1027.66 547.82C1026.78 547.41 1026.33 547.81 1026.07 548.42C1025.84 548.37 1025.6 548.47 1025.55 548.76C1025.12 551.16 1024.09 554.12 1024.82 556.55C1025.15 557.67 1025.86 558.93 1027.1 558.25C1028.86 557.3 1028.96 555.44 1028.83 553.69C1028.72 552.13 1029.58 548.72 1027.66 547.82Z" />
				<path id="Fill-135" fill-rule="evenodd" class="shp26" d="M1030.78 511.73C1028.71 514.32 1027.29 528.55 1026.43 535.66C1025.58 542.76 1025.16 549.71 1025.16 549.71C1025.16 549.71 1028.16 551.29 1029.42 550.71C1030.68 550.13 1032.4 531.68 1032.4 531.68L1033.26 512.07C1033.26 512.07 1032.67 509.95 1030.78 511.73Z" />
				<path id="Fill-137" fill-rule="evenodd" class="shp34" d="M1039.08 489.89C1038.92 489.9 1038.75 489.92 1038.58 489.94C1037.56 489.7 1036.5 489.66 1035.43 489.88C1033.67 490.25 1032 491.29 1031.64 492.96C1031.75 493.61 1031.97 494.3 1032.39 494.8C1033.45 496.06 1034.26 497.87 1034.26 497.87C1034.26 497.87 1034.91 497.06 1035.48 497.47C1036.05 497.87 1036.2 500.05 1035.68 500.68C1035.31 501.13 1036.28 502.46 1037.18 503.94C1037.81 504.58 1038.56 505.08 1039.43 505.25C1041.61 506.69 1044.09 501.9 1044.64 499.45C1045.61 495.17 1044.44 489.52 1039.08 489.89Z" />
				<path id="Fill-139" fill-rule="evenodd" class="shp10" d="M1073.34 507.08C1072.78 504.21 1071.16 501.03 1069.81 498.43C1069.08 497.02 1067.74 494.39 1066.17 493.84C1065.51 493.61 1065.92 492.75 1065.6 493.05C1065.08 492.8 1063.68 493.39 1063.61 494.15C1063.46 495.58 1063.2 497.67 1063.39 499.12C1063.34 499.52 1063.29 499.93 1063.24 500.34C1063.18 500.88 1063.03 501.49 1063.07 502.03C1063.11 502.59 1063.52 502.63 1063.99 502.62C1064.04 502.9 1064.1 503.18 1064.15 503.46C1064.5 505.19 1065.45 505.89 1066.63 505.91C1066.7 506.71 1066.74 507.79 1067.15 508.54C1067.16 508.62 1067.18 508.7 1067.19 508.78C1067.31 509.32 1067.85 509.5 1068.3 509.39C1069.69 509.68 1071.2 508.33 1072.46 508.23C1073.08 508.19 1073.46 507.69 1073.34 507.08Z" />
				<path id="Fill-141" fill-rule="evenodd" class="shp34" d="M1066.43 595.91C1066.41 595.13 1066.38 594.36 1066.35 593.58C1066.35 593.56 1066.35 593.54 1066.35 593.51C1066.35 593.51 1066.35 593.5 1066.35 593.49C1066.34 593.23 1066.07 593.15 1065.9 593.23C1064.81 592.96 1063.72 592.76 1062.62 593.06C1062.57 593.04 1062.5 593.03 1062.43 593.05C1060.81 593.63 1057.23 593.99 1055.53 594.24C1054.85 594.34 1054.1 594.37 1053.63 594.95C1052.55 596.26 1054.25 597.05 1055.27 597.37C1057.57 598.09 1062.01 598.48 1064.41 598.14C1064.99 598.06 1066.03 598.06 1066.39 597.52C1066.65 597.12 1066.45 596.32 1066.43 595.91Z" />
				<path id="Fill-143" fill-rule="evenodd" class="shp34" d="M1078.53 584.76C1078.49 584.59 1078.32 584.51 1078.16 584.55C1076.84 584.86 1075.53 585.17 1074.21 585.49C1074.13 585.45 1074.04 585.44 1073.94 585.51C1072.34 586.59 1065.73 585.75 1065.19 588.1C1065.16 588.23 1065.21 588.38 1065.33 588.44C1068.62 590.13 1075.23 590.56 1078.82 589.67C1078.95 589.63 1079.04 589.5 1079.04 589.37C1079.07 587.8 1078.9 586.28 1078.53 584.76Z" />
				<path id="Fill-145" fill-rule="evenodd" class="shp34" d="M1079.22 539.13C1077.62 538.86 1079.01 538.45 1078.72 538.33C1078.52 538.08 1078.21 537.92 1077.82 537.97C1072.96 538.64 1068.1 538.46 1063.21 539.11C1063.18 539.11 1063.15 539.12 1063.12 539.13C1062.62 539.04 1062.01 539.33 1061.97 539.99C1060.28 546.57 1061.22 564.48 1061.3 571.57L1061.3 571.55L1061.28 593.57L1062.31 594.13C1064.06 595.05 1065.44 594.89 1066.4 594.49C1067.3 593.18 1067.11 591.37 1067.2 589.8C1067.4 586.29 1067.68 582.78 1068.03 579.28C1068.61 573.56 1069.67 562.15 1070.66 556.49C1070.77 557.39 1070.98 561.55 1070.98 561.55C1071.14 562.94 1072.39 579.29 1073.18 585.95C1075.88 587.37 1077.87 585.78 1078.74 584.83C1078.71 583.12 1078.68 581.4 1078.65 579.69C1079.5 569.69 1081.51 539.52 1079.22 539.13Z" />
				<path id="Fill-147" fill-rule="evenodd" class="shp10" d="M1059.18 525.57C1058.61 524.46 1057.57 523.89 1056.58 524.88C1056.1 525.36 1055.71 525.92 1055.67 526.63C1055.65 527.02 1055.73 527.24 1055.55 527.64C1055.43 527.91 1055.28 528.09 1055.23 528.4C1055.06 529.56 1056.02 530.62 1057.14 530.76C1058.63 530.95 1058.81 529.53 1058.96 528.41C1059.03 527.87 1059.23 526.89 1059.1 526.14C1059.23 526 1059.29 525.79 1059.18 525.57Z" />
				<path id="Fill-149" fill-rule="evenodd" class="shp16" d="M1066.76 523.03C1066.76 523.03 1061.6 533.27 1059.82 534.58C1058.04 535.89 1056.81 535.59 1056.46 532.48C1056.11 529.37 1060.98 513.42 1062.58 511.86C1064.18 510.29 1066.76 523.03 1066.76 523.03Z" />
				<path id="Fill-151" fill-rule="evenodd" class="shp16" d="M1078.39 530.78C1078.39 525.58 1080.33 522.57 1079.22 515.8C1078.53 511.53 1076.39 508.65 1074.89 507.11C1073.66 506.9 1072.35 507.07 1070.99 507.42C1068.01 508.17 1064.52 509.33 1062.58 511.86C1060.62 514.41 1060.7 534.17 1061.57 532.63C1061.5 534.75 1061.44 536.87 1061.43 539C1061.41 541.31 1060.89 543.18 1062.96 544.52C1066.7 546.93 1071.38 545.66 1075.17 543.57C1077.14 542.92 1079.29 541.93 1080 540.34C1080.01 540.32 1080.01 540.31 1080.02 540.29C1079.27 537.56 1078.39 533.75 1078.39 530.78Z" />
				<path id="Fill-153" fill-rule="evenodd" class="shp34" d="M1076.06 494.03L1076.06 494.03C1076.06 494.03 1075.62 492.21 1074.16 490.98C1072.65 489.7 1070.13 489 1066.73 490.92C1065.98 491.27 1065.41 491.68 1064.98 492.08C1064.97 492.09 1064.97 492.09 1064.96 492.09C1064.96 492.09 1064.96 492.09 1064.96 492.09C1063.88 493.1 1063.62 494.1 1063.61 494.15C1063.73 494.54 1063.91 494.91 1064.16 495.21C1065.2 496.45 1066 498.23 1066 498.23C1066 498.23 1066.64 497.43 1067.2 497.83C1067.76 498.23 1067.91 500.37 1067.4 500.99C1067.27 501.14 1067.31 501.4 1067.44 501.73C1068.29 503.05 1070.02 505.01 1072.82 505.46C1074.39 504.53 1075.81 501.54 1076.21 499.77C1076.63 497.92 1076.63 495.79 1076.06 494.03Z" />
				<path id="Fill-155" fill-rule="evenodd" class="shp34" d="M1081.76 498.92C1080.8 496.47 1081.43 493.77 1079.29 491.77C1077.96 490.53 1076.26 490.24 1074.58 490.79C1074.47 490.83 1074.41 490.89 1074.36 490.95C1074.36 490.96 1074.36 490.96 1074.36 490.96C1074.3 491 1074.24 491.03 1074.17 491.07C1074.04 491.16 1073.98 491.38 1074.01 491.53C1074.28 492.86 1075.48 493.8 1075.95 495.09C1076.67 497.05 1076.09 498.92 1076.4 500.9C1076.57 501.96 1076.97 502.94 1077.58 503.82C1078.76 505.48 1081.46 506.51 1081.29 508.9C1081.26 509.32 1081.77 509.61 1082.1 509.32C1083.46 508.14 1084.28 506.54 1084.31 504.71C1084.35 502.15 1082.6 501.09 1081.76 498.92Z" />
				<path id="Fill-157" fill-rule="evenodd" class="shp43" d="M1126.08 427.79C1125.52 427.25 1124.99 426.58 1124.36 426.13C1123.39 425.45 1122.01 425.9 1120.92 426.01C1120.84 426.02 1120.78 426.06 1120.72 426.1C1120.48 425.93 1120.02 426.15 1120.08 426.55C1120.31 428.3 1120.55 430.11 1121.04 431.81C1121.25 432.53 1121.66 434.1 1122.5 434.33C1124.76 434.97 1124.78 431.39 1124.43 430.2C1124.4 430.1 1124.03 429.22 1124.08 429.17C1124.27 428.99 1125.04 429.47 1125.22 429.56C1125.53 429.7 1125.89 429.92 1126.25 429.89C1126.81 429.84 1127.1 429.41 1127.02 428.89C1126.95 428.45 1126.35 428.06 1126.08 427.79Z" />
				<path id="Fill-159" fill-rule="evenodd" class="shp43" d="M1168.4 419.19C1167.12 417.56 1165.09 416.14 1162.95 416.43C1162.76 416.46 1162.67 416.59 1162.66 416.73C1162.65 416.75 1162.64 416.77 1162.63 416.79C1162.39 417.77 1162.13 419.18 1162.45 420.17C1162.7 420.92 1163.35 421.15 1164.04 421.35C1165.03 421.63 1165.58 421.97 1166.21 422.8C1166.5 423.19 1166.76 423.59 1167.17 423.88C1167.68 424.23 1168.45 424.45 1168.98 424.01C1170.04 423.13 1169.12 420.09 1168.4 419.19Z" />
				<path id="Fill-161" fill-rule="evenodd" class="shp43" d="M1149.79 389.65L1147.77 385.18L1147.77 385.18C1147.02 383.52 1145.54 381.61 1145.54 381.61C1146.85 380.83 1142.49 381.23 1141.58 381.36C1140.67 381.49 1138.42 392.59 1138.68 393.76C1138.94 394.94 1137.83 396.9 1137.83 396.9L1143.13 398.79L1143.97 395.79C1143.97 395.79 1147.11 396.44 1147.7 395.79C1148.03 395.42 1148.25 393.05 1148.32 390.72C1148.96 390.34 1149.79 389.65 1149.79 389.65Z" />
				<path id="Fill-163" fill-rule="evenodd" class="shp34" d="M1145.56 381.63C1145.56 381.63 1145.54 381.61 1145.54 381.61C1146.85 380.83 1146.26 379.59 1146.2 379.39C1146.13 379.19 1143.06 379.26 1142.15 379.39C1141.23 379.52 1139.01 379.72 1136.92 381.15C1134.83 382.59 1134.31 385.66 1134.76 387.36C1135.22 389.06 1138.42 392.59 1138.68 393.76C1138.72 393.92 1138.73 394.09 1138.72 394.26C1140.55 393.99 1143.78 390.46 1142.98 389.75C1142.1 388.98 1142.16 386.8 1142.67 386.49C1143.19 386.18 1144.22 387.42 1144.38 387.22C1144.54 387.01 1143.14 382.61 1143.5 382.15C1143.66 381.94 1144.58 381.76 1145.56 381.63Z" />
				<path id="Fill-165" fill-rule="evenodd" class="shp34" d="M1144.55 461.83C1144.55 461.83 1143.44 465.22 1143.53 466.87C1143.62 468.52 1145.09 469.64 1146.22 469.38C1147.35 469.12 1151.19 465.48 1152.39 464.35C1153.6 463.22 1154.81 459.93 1154.38 459.49C1153.94 459.06 1151.34 459.4 1149 460.79C1146.65 462.18 1144.55 461.83 1144.55 461.83Z" />
				<path id="Fill-167" fill-rule="evenodd" class="shp34" d="M1128.99 423.52C1128.99 423.52 1126.42 429.73 1128.99 433.67C1131.57 437.6 1136.11 441.24 1136.26 442.45C1136.41 443.66 1135.99 453.96 1134.61 458.66C1133.23 463.35 1129.9 476.23 1129.9 477.29C1129.9 478.35 1134.5 479.56 1136.29 478.5C1137.86 474.16 1143.68 453.96 1143.68 453.96C1143.68 453.96 1144.01 457.32 1143.68 462.75C1144.14 463.35 1148.47 464.26 1149.79 461.23C1150.34 448.32 1149.74 443.51 1149.14 442C1148.53 440.48 1145.5 437.6 1145.5 437.6C1145.5 437.6 1145.5 428.46 1145.35 425.76C1145.2 423.06 1128.99 423.52 1128.99 423.52Z" />
				<path id="Fill-169" fill-rule="evenodd" class="shp22" d="M1163.16 416.25C1160.66 416.64 1156.73 417.09 1154.49 416.58C1153.56 412.6 1152.85 408.26 1151.24 404.59C1150.33 402.51 1148.75 401.21 1146.91 400.24C1146.18 399.76 1145.41 399.33 1144.63 398.94L1144.71 397.75C1144.76 397.09 1144.53 396.79 1143.62 396.48C1141.79 395.74 1139.7 395.15 1137.77 394.75C1137.44 394.69 1137.37 394.77 1137.14 394.9C1137.02 394.96 1136.91 395.03 1136.81 395.12C1136.58 395.33 1136.36 395.55 1136.15 395.79C1135.6 395.69 1135.06 395.62 1134.5 395.58C1133.64 395.42 1130.32 396.41 1129.94 396.84C1125.87 401.42 1123.44 405.55 1121.03 411.19C1120.94 411.4 1120.92 411.61 1120.93 411.81C1120.17 416.55 1119.57 421.3 1119.15 426.08C1119.12 426.35 1119.18 426.57 1119.29 426.74C1122 427.98 1123.75 427.15 1124.69 426.31C1124.72 426.23 1124.74 426.15 1124.75 426.06C1125.27 421.82 1126 417.62 1126.92 413.45C1126.94 413.36 1126.95 413.27 1126.95 413.18C1127.95 411.46 1128.96 409.76 1129.99 408.06C1129.17 414 1128.34 419.93 1127.52 425.86C1127.44 426.38 1127.66 426.79 1127.99 427.06C1128.06 427.13 1128.13 427.2 1128.22 427.26C1132.64 430.2 1138.8 431.49 1143.66 429.21C1145.34 428.86 1146.37 427.8 1146.68 425.73C1147.05 423.15 1147.35 420.54 1147.62 417.93C1147.91 419.3 1148.23 420.65 1148.61 422C1148.68 422.24 1148.8 422.42 1148.95 422.56C1149.11 422.96 1149.47 423.29 1150.02 423.32C1151.07 423.38 1152.13 423.42 1153.18 423.42C1157.44 423.15 1161.36 421.92 1163.41 421.17C1164.21 419.75 1164.21 418.1 1163.48 416.64C1163.39 416.47 1163.28 416.35 1163.16 416.25Z" />
				<path id="Fill-171" fill-rule="evenodd" class="shp34" d="M1130.6 476.59C1130.6 476.59 1128.69 481.62 1128.78 482.83C1128.87 484.05 1130.43 484.14 1132.6 484.57C1134.77 485 1141.97 485.61 1143.96 484.57C1145.96 483.53 1142.4 481.67 1140.49 480.86C1138.58 480.06 1135.2 479.1 1135.03 477.28C1134.85 475.46 1130.6 476.59 1130.6 476.59Z" />
				<path id="Fill-225" class="shp10" d="M1023.96 610.22L1042.95 620.98L1023.96 632.2L1005.13 621.21L1023.96 610.22Z" />
				<path id="Fill-227" class="shp26" d="M1024.04 650.22L1005.13 639.75L1005.13 621.21L1023.96 632.2L1024.04 650.22Z" />
				<path id="Fill-229" class="shp27" d="M1042.95 620.98L1023.96 632.2L1024.04 650.22L1042.95 639.16L1042.95 620.98Z" />
				<path id="Fill-231" fill-rule="evenodd" class="shp34" d="M1018.6 607.48C1018.6 607.48 1006.93 604.95 1006.15 604.95C1005.38 604.95 1001.37 605.16 1001.02 605.87C1000.66 606.57 1001.93 613.96 1001.93 613.96L1019.38 614.87L1018.6 607.48Z" />
				<path id="Fill-233" fill-rule="evenodd" class="shp22" d="M997.88 632.86C997.88 632.86 996.92 633.77 995.87 634.05C994.82 634.32 991.44 633.68 990.58 634C989.71 634.32 989.34 635.23 989.34 635.23C989.34 635.23 989.16 635.6 990.3 636.51C991.44 637.42 992.04 637.79 994.54 638.43C997.05 639.06 1001.12 639.99 1001.91 639.01C1002.69 638.04 1001.38 634.55 1001.38 634.55L997.88 632.86Z" />
				<path id="Fill-235" fill-rule="evenodd" class="shp34" d="M1014.24 609.61L1001.97 610.84C1001.97 610.84 996.36 611.37 995.17 612.32C993.99 613.27 992.75 615.13 992.84 617.27C992.94 619.41 997.27 633.15 997.27 633.15C997.27 633.15 996.91 635.41 1001.88 636C1002.83 633.93 1001.88 618.12 1001.88 618.12C1001.88 618.12 1001.88 617.84 1002.69 617.84C1003.5 617.84 1009.3 618.79 1011.06 619.36C1012.82 619.93 1018.9 622.63 1020.57 622.48C1022.23 622.34 1027.85 620.61 1028.81 619.51C1029.76 618.42 1030.59 616.36 1030.49 615.79C1030.4 615.21 1029.12 611.42 1029.12 611.42L1014.24 609.61Z" />
				<path id="Fill-237" fill-rule="evenodd" class="shp43" d="M1016.53 586.76C1016.4 586.73 1014.8 583.61 1014.8 583.61C1014.8 583.61 1010.4 582.75 1009.79 582.12C1009.19 581.49 1005.81 573.39 1005.81 573.39C1005.81 573.39 1004.53 575.91 1004.55 577.19C1004.58 578.48 1004.92 580.02 1004.89 580.28C1004.87 580.55 1004.6 582.83 1004.76 583.01C1004.92 583.19 1006.07 583.14 1006.1 583.25C1006.12 583.35 1007.38 586.55 1007.8 586.6C1008.22 586.65 1010.08 586.03 1010.08 586.03L1011.21 589.09L1016.53 586.76Z" />
				<path id="Fill-239" fill-rule="evenodd" class="shp16" d="M1018.9 586.02C1018.8 585.92 1018 585.02 1017.72 585.02C1017.43 585.02 1012.68 586.59 1011.87 587.45C1011.06 588.3 1010.72 588.3 1009.54 589.06C1008.35 589.83 1005.3 593.34 1004.64 594.91C1003.97 596.48 998.5 609.85 998.46 610.61C998.41 611.37 998.69 612.79 999.17 612.99C999.64 613.18 1003.02 612.84 1003.83 612.27C1004.64 611.7 1009.3 602.86 1009.92 602.81C1010.54 602.76 1012.32 609.16 1012.42 609.78C1012.51 610.4 1013.2 614.89 1015.24 615.51C1017.29 616.12 1021.9 618.45 1023.99 618.07C1026.09 617.69 1030.14 614.66 1030.14 614.66C1030.14 614.66 1027.47 606.33 1026.56 602.52C1025.66 598.72 1024.56 591.92 1022.95 590.16C1021.33 588.4 1019.47 586.56 1018.9 586.02Z" />
				<path id="Fill-241" fill-rule="evenodd" class="shp34" d="M1015.69 573.78C1015.16 572.51 1013.91 570.71 1013.41 570.31C1012.92 569.9 1011.71 569.59 1010.84 569.53C1009.97 569.46 1008.12 569.86 1006.7 570.72C1005.79 571.27 1004.65 572.5 1003.96 573.32C1003.71 574.13 1003.8 574.8 1003.96 574.86C1004.22 574.96 1005.82 574.99 1006.31 575.44C1006.54 575.66 1006.87 576.51 1007.14 577.35C1007.9 578.83 1007.98 580.67 1009.05 581.96C1010.03 583.13 1011.48 583.74 1012.94 584.08C1013.66 584.25 1014.88 584.81 1015.33 584.08C1016.17 582.71 1016.08 580.63 1016.18 579.1C1016.3 577.25 1016.42 575.52 1015.69 573.78Z" />
				<path id="Fill-243" fill-rule="evenodd" class="shp43" d="M1007.18 578.24C1007.18 578.24 1007.54 577.16 1008.31 577.37C1009.07 577.57 1009.23 580.66 1008.31 580.93C1007.39 581.2 1007.18 578.24 1007.18 578.24Z" />
				<path id="Fill-245" fill-rule="evenodd" class="shp34" d="M982.57 642.52C982.57 642.52 970.55 639.91 969.75 639.91C968.95 639.91 964.83 640.12 964.46 640.85C964.1 641.57 965.4 649.18 965.4 649.18L983.37 650.12L982.57 642.52Z" />
				<g id="Group-249">
					<g id="Clip-248">
					</g>
					<g id="Clip-Path: Fill-247" clip-path="url(#cp12)">
						<path id="Fill-247" fill-rule="evenodd" class="shp16" d="M961.23 668.64C961.23 668.64 960.24 669.58 959.16 669.86C958.08 670.15 954.61 669.49 953.71 669.82C952.82 670.15 952.45 671.08 952.45 671.08C952.45 671.08 952.26 671.46 953.43 672.4C954.61 673.34 955.22 673.71 957.8 674.37C960.38 675.03 964.57 675.98 965.38 674.98C966.19 673.98 964.84 670.38 964.84 670.38L961.23 668.64Z" />
					</g>
				</g>
				<path id="Fill-250" fill-rule="evenodd" class="shp34" d="M978.08 644.7L965.45 645.98C965.45 645.98 959.67 646.52 958.45 647.49C957.23 648.47 955.95 650.38 956.05 652.59C956.15 654.79 960.6 668.94 960.6 668.94C960.6 668.94 960.24 671.26 965.35 671.88C966.33 669.74 965.35 653.46 965.35 653.46C965.35 653.46 965.35 653.17 966.19 653.17C967.02 653.17 972.99 654.15 974.8 654.74C976.61 655.33 982.88 658.11 984.59 657.96C986.31 657.81 992.09 656.03 993.07 654.9C994.05 653.77 994.91 651.65 994.81 651.06C994.71 650.47 993.4 646.57 993.4 646.57L978.08 644.7Z" />
				<path id="Fill-252" fill-rule="evenodd" class="shp10" d="M980.43 621.18C980.3 621.15 978.65 617.94 978.65 617.94C978.65 617.94 974.12 617.05 973.5 616.4C972.88 615.75 969.4 607.42 969.4 607.42C969.4 607.42 968.08 610.01 968.1 611.33C968.13 612.65 968.48 614.24 968.45 614.51C968.43 614.78 968.16 617.13 968.32 617.32C968.48 617.51 969.67 617.45 969.7 617.56C969.72 617.67 971.02 620.96 971.45 621.02C971.88 621.07 973.8 620.42 973.8 620.42L974.96 623.58L980.43 621.18Z" />
				<path id="Fill-254" fill-rule="evenodd" class="shp22" d="M982.88 620.42C982.77 620.31 981.95 619.39 981.66 619.39C981.36 619.39 976.47 621.01 975.63 621.89C974.8 622.77 974.46 622.77 973.24 623.55C972.01 624.34 968.88 627.96 968.19 629.57C967.51 631.19 961.88 644.95 961.83 645.73C961.78 646.52 962.07 647.98 962.56 648.18C963.05 648.38 966.53 648.03 967.36 647.44C968.19 646.86 972.99 637.75 973.63 637.7C974.26 637.65 976.11 644.24 976.2 644.88C976.3 645.51 977.01 650.14 979.11 650.77C981.22 651.41 985.97 653.81 988.12 653.42C990.27 653.03 994.45 649.9 994.45 649.9C994.45 649.9 991.69 641.32 990.76 637.41C989.83 633.49 988.71 626.49 987.04 624.68C985.38 622.87 983.46 620.97 982.88 620.42Z" />
				<path id="Fill-256" fill-rule="evenodd" class="shp27" d="M979.57 607.82C979.02 606.51 977.73 604.66 977.23 604.24C976.72 603.82 975.47 603.5 974.58 603.44C973.69 603.37 971.78 603.78 970.32 604.66C969.38 605.23 968.21 606.49 967.49 607.34C967.24 608.18 967.33 608.87 967.5 608.93C967.76 609.03 969.41 609.06 969.91 609.53C970.15 609.75 970.49 610.63 970.77 611.5C971.55 613.02 971.63 614.91 972.74 616.24C973.74 617.45 975.24 618.07 976.74 618.42C977.48 618.6 978.74 619.17 979.2 618.42C980.07 617.01 979.98 614.87 980.08 613.29C980.2 611.38 980.32 609.61 979.57 607.82Z" />
				<path id="Fill-258" fill-rule="evenodd" class="shp10" d="M970.81 612.41C970.81 612.41 971.18 611.3 971.97 611.51C972.75 611.72 972.92 614.9 971.97 615.18C971.02 615.46 970.81 612.41 970.81 612.41Z" />
				<g id="ludzik">
					<path id="Fill-1" fill-rule="evenodd" class="shp10" d="M1362.7 303.72C1363.22 301.04 1364.73 298.08 1365.99 295.66C1366.68 294.34 1367.93 291.89 1369.39 291.37C1370 291.15 1370.46 291.25 1370.76 291.53C1371.24 291.29 1372.02 291.53 1372.09 292.25C1372.23 293.59 1372.16 294.94 1371.98 296.29C1372.03 296.67 1372.08 297.05 1372.12 297.43C1372.18 297.94 1372.32 298.51 1372.28 299.01C1372.24 299.53 1371.86 299.57 1371.43 299.56C1371.38 299.82 1371.32 300.08 1371.27 300.34C1370.95 301.96 1370.06 302.61 1368.96 302.63C1368.9 303.38 1368.86 304.39 1368.48 305.08C1368.46 305.16 1368.45 305.23 1368.43 305.3C1368.33 305.81 1367.82 305.98 1367.4 305.88C1366.1 306.14 1364.69 304.88 1363.52 304.8C1362.94 304.75 1362.59 304.29 1362.7 303.72Z" />
					<g id="Group-5">
						<g id="Clip-4">
						</g>
						<g id="Clip-Path: Fill-3" clip-path="url(#cp13)">
							<path id="Fill-3" fill-rule="evenodd" class="shp34" d="M1365.15 288.14C1365.3 288.15 1365.46 288.17 1365.61 288.19C1366.54 287.97 1367.51 287.93 1368.5 288.13C1370.18 288.49 1371.79 289.51 1372.03 291.15C1372.48 291.85 1372.28 292.76 1371.59 293.49C1371.2 293.9 1370.71 294.21 1370.19 294.5C1369.72 295.17 1369.28 295.84 1369.03 296.71C1368.76 297.61 1368.55 298.51 1368.11 299.34C1367.42 300.64 1366.29 301.94 1364.83 302.24C1362.82 303.55 1360.55 299.16 1360.04 296.91C1359.15 292.99 1360.23 287.8 1365.15 288.14Z" />
						</g>
					</g>
					<g id="Group-8">
						<g id="Clip-7">
						</g>
						<g id="Clip-Path: Fill-6" clip-path="url(#cp14)">
							<path id="Fill-6" fill-rule="evenodd" class="shp22" d="M1369.97 395.5C1370.33 396.05 1371.39 396.06 1371.97 396.14C1374.41 396.48 1378.94 396.08 1381.27 395.35C1382.31 395.02 1384.04 394.22 1382.94 392.89C1382.46 392.3 1381.7 392.27 1381 392.16C1379.28 391.91 1375.64 391.55 1373.99 390.96C1373.91 390.94 1373.85 390.94 1373.79 390.97C1372.68 390.66 1371.57 390.86 1370.46 391.14C1370.28 391.06 1370.02 391.14 1370.01 391.4C1370.01 391.41 1370.01 391.42 1370.01 391.43C1370 391.45 1370 391.48 1370 391.5C1369.98 392.29 1369.95 393.08 1369.92 393.86C1369.9 394.29 1369.7 395.1 1369.97 395.5Z" />
						</g>
					</g>
					<path id="Fill-9" fill-rule="evenodd" class="shp22" d="M1357.09 387.22C1357.1 387.35 1357.19 387.48 1357.32 387.52C1360.97 388.42 1367.69 387.99 1371.04 386.27C1371.16 386.21 1371.21 386.05 1371.18 385.92C1370.63 383.53 1363.91 384.39 1362.28 383.29C1362.18 383.22 1362.09 383.22 1362.01 383.27C1360.67 382.95 1359.33 382.63 1357.99 382.31C1357.83 382.27 1357.65 382.36 1357.61 382.52C1357.23 384.08 1357.06 385.62 1357.09 387.22Z" />
					<path id="Fill-11" fill-rule="evenodd" class="shp34" d="M1356.91 336.12C1356.9 335.7 1357.13 335.43 1357.42 335.31C1357.63 335.06 1357.94 334.89 1358.33 334.94C1363.28 335.62 1368.22 335.44 1373.19 336.09C1373.23 336.1 1373.26 336.11 1373.29 336.12C1373.8 336.03 1374.41 336.32 1374.46 336.99C1374.99 344.19 1375.22 361.9 1375.14 369.11L1375.14 369.09L1375.16 391.49L1374.11 392.05C1372.33 392.99 1370.92 392.83 1369.95 392.42C1369.04 391.09 1369.23 389.25 1369.14 387.65C1368.93 384.08 1368.65 380.51 1368.29 376.95C1367.7 371.13 1366.68 358.35 1365.68 352.59C1365.57 353.51 1365.21 362.35 1365.21 362.35C1365.06 363.76 1363.86 376.97 1363.06 383.74C1360.31 385.18 1358.29 383.57 1357.4 382.6C1357.43 380.86 1357.46 379.11 1357.49 377.37C1356.62 367.2 1357.05 346.28 1356.91 336.12Z" />
					<path id="Fill-13" fill-rule="evenodd" class="shp16" d="M1355.3 326.04C1354.92 322.43 1354.84 319.01 1355.44 315.41C1355.84 313.04 1356.25 310.29 1357.16 307.86C1358.08 306.25 1359.26 304.85 1360.83 303.62C1362.21 303.27 1363.71 303.47 1365.27 303.86C1368.3 304.63 1371.84 305.82 1373.82 308.38C1375.81 310.97 1374.59 332.54 1374.99 335.98C1375.26 338.32 1375.76 340.7 1373.43 341.6C1369.21 343.24 1364.87 342.76 1361.02 340.64C1359.01 339.98 1356.82 338.97 1356.1 337.35C1355.55 336.13 1355.89 334.19 1355.83 332.88C1355.72 330.6 1355.54 328.32 1355.3 326.04Z" />
					<path id="Fill-15" fill-rule="evenodd" class="shp10" d="M1392.54 309.39C1393.98 308.18 1394.68 306.46 1395.57 304.86C1396.07 303.98 1397 302.87 1397.67 302.38C1397.82 302.27 1398.14 302.42 1398.14 302.6C1398.16 303.89 1396.4 304.99 1396.94 306.12C1397.19 306.63 1398.47 306.95 1398.73 307.56C1398.95 308.08 1398.9 308.54 1398.65 309.03C1398.05 310.2 1395.94 311.14 1394.73 311.52C1394.06 311.73 1392.27 309.61 1392.54 309.39Z" />
					<path id="Fill-17" fill-rule="evenodd" class="shp16" d="M1371.53 306.33C1371.53 306.33 1376.2 310.35 1377.15 311.39C1378.09 312.43 1384.05 316.13 1384.05 316.13L1392.52 309.12C1392.52 309.12 1395.26 311.37 1395.33 311.65C1395.39 311.93 1387.36 320.75 1385.19 322.02C1383.02 323.28 1371.53 317.26 1371.53 317.26L1371.53 306.33Z" />
				</g>
				<g id="Page-1">
					<path id="Fill-1" fill-rule="evenodd" class="shp43" d="M1413.44 401.45C1412.96 399.99 1410.78 400.46 1410.88 401.8C1410.67 401.86 1410.46 401.96 1410.28 402.11C1410.25 402.14 1410.21 402.17 1410.18 402.2C1409.81 402.52 1409.7 403.19 1409.93 403.64C1409.54 403.76 1409.21 404.03 1409.1 404.5C1408.94 405.14 1408.8 405.77 1408.68 406.41C1408.4 406.54 1408.17 406.81 1408.08 407.23C1407.83 408.44 1407.69 409.59 1407.69 410.81C1407.61 410.8 1407.53 410.8 1407.46 410.8C1406.82 410.15 1405.62 410.14 1405.34 411.29C1405.33 411.35 1405.32 411.4 1405.31 411.45C1405.3 411.47 1405.29 411.48 1405.29 411.5C1405.22 411.79 1405.17 412.08 1405.11 412.37C1405.08 412.51 1405.04 412.65 1405.02 412.79C1405 412.9 1404.98 413.01 1404.96 413.13C1404.72 414.42 1404.55 415.71 1404.45 417.03C1404.4 417.67 1404.74 418.06 1405.19 418.2C1405.45 418.57 1405.81 418.84 1406.33 418.96C1407.16 419.17 1407.72 418.98 1408.1 418.59C1408.26 418.7 1408.43 418.77 1408.62 418.81C1409.34 419.37 1410.69 419.04 1410.77 417.83C1410.84 416.73 1410.91 415.63 1410.98 414.52C1412.62 414.82 1414.28 414.49 1414.92 412.76C1416.21 409.28 1414.51 404.74 1413.44 401.45Z" />
					<path id="Fill-3" fill-rule="evenodd" class="shp27" d="M1404.9 413.77C1404.9 413.77 1404.65 412.28 1403.77 411.35C1402.89 410.41 1400.48 407.12 1400.3 405.59C1400.12 404.06 1401.53 400.77 1403.41 399.65C1405.29 398.54 1408.88 398.01 1410.17 398.36C1411.46 398.71 1413.05 399.36 1413.23 399.89C1413.4 400.42 1413.46 401.71 1412.52 402.48C1411.58 403.24 1411.05 404.3 1410.99 405.18C1410.94 406.06 1410.24 405.47 1409.91 405.65C1409.58 405.82 1409.11 407.12 1409.53 408.18C1409.94 409.23 1409.53 410.72 1409.32 411.54C1409.11 412.36 1404.9 413.77 1404.9 413.77Z" />
					<path id="Fill-5" fill-rule="evenodd" class="shp43" d="M1431.34 448.67C1431.21 448.58 1431.08 448.59 1430.97 448.64C1430.04 448.27 1429.13 449.22 1429.25 450.36C1429.4 451.71 1430.5 453.17 1431.11 454.36C1431.78 455.66 1432.47 457.08 1433.58 458.08C1434.5 458.91 1436.22 459.36 1436.16 457.67C1436.14 456.91 1435.75 456.03 1435.49 455.32C1435.34 454.95 1434.96 452.7 1434.96 452.7C1435.36 453.12 1436.24 454.46 1436.9 454.02C1437.07 453.91 1437.15 453.73 1437.1 453.53C1436.58 451.36 1432.99 449.79 1431.34 448.67Z" />
					<path id="Fill-7" fill-rule="evenodd" class="shp16" d="M1405.92 498.09C1404.99 497.56 1403.83 498.09 1402.98 498.53C1401.14 499.49 1399.37 500.59 1397.58 501.63C1397.38 501.39 1396.92 501.38 1396.82 501.76C1396.31 503.64 1394.99 507.72 1397.79 508.49C1400.61 509.26 1402.51 505.81 1404.08 504.12C1405.06 503.07 1408.14 499.36 1405.92 498.09Z" />
					<path id="Fill-9" fill-rule="evenodd" class="shp16" d="M1422.14 509.17C1421.16 508.14 1419.52 508.03 1418.21 507.7C1415.8 507.08 1413.48 506.21 1411.23 505.14C1411.03 505.04 1410.85 505.11 1410.72 505.23C1409.88 505.17 1409.05 505.16 1408.21 505.27C1408.17 505.27 1408.14 505.29 1408.1 505.31C1407.98 505 1407.43 504.94 1407.27 505.35C1406.66 506.91 1405.21 511.51 1407.65 512.12C1409.49 512.59 1411.76 512.35 1413.66 512.4C1415.87 512.45 1418.08 512.48 1420.27 512.26C1421.23 512.16 1422.45 512.35 1422.79 511.28C1423.03 510.53 1422.65 509.7 1422.14 509.17Z" />
					<path id="Fill-11" fill-rule="evenodd" class="shp22" d="M1396.39 451.7C1396.39 451.7 1398.28 471.37 1398.16 475.08C1398.03 478.78 1396.43 502.4 1396.43 502.4C1396.43 502.4 1400.14 505.12 1402.24 502.4C1403.56 495.57 1406.11 478.83 1406.46 477.01C1406.81 475.2 1406.46 464.07 1406.46 464.07C1406.46 464.07 1409.04 476.19 1409.16 479.28C1409.28 482.37 1406.46 506.23 1406.46 506.23C1406.46 506.23 1411.96 507.63 1413.36 506.23C1414.98 495.15 1416.82 485.42 1417.44 478.82C1417.57 472.36 1415.88 450.73 1415.88 450.73L1396.39 451.7Z" />
					<path id="Fill-13" fill-rule="evenodd" class="shp34" d="M1431.42 447.02C1429.6 444.63 1427.71 442.4 1426.16 439.81C1423.07 434.64 1421.28 430.69 1419.39 424.98C1419.31 424.71 1418.74 423.38 1418.46 423.02C1416.26 419.67 1412.73 417.9 1408.78 416.54C1404.55 415.09 1399.95 415.01 1397.07 418.92C1394 423.08 1393.4 429.17 1392.22 434.04C1391.85 435.56 1390.23 438.94 1391.45 440.39C1392.38 441.5 1395.01 441.25 1396.58 441.23C1396.42 442.94 1396.28 444.66 1396.15 446.37C1396.05 447.72 1395.95 449.07 1395.89 450.42C1395.86 450.92 1395.76 452.09 1395.93 452.77C1397.81 453.59 1400.81 454.5 1405.35 454.91C1411.05 455.43 1414.52 454.37 1416.34 453.48C1416.83 450.98 1416.72 448.17 1416.81 445.64C1416.9 443.19 1416.91 440.73 1416.89 438.28C1418.9 441.83 1421.66 444.85 1424.48 447.84C1425.36 448.77 1427.57 451.68 1429.55 452.6C1431.11 451.69 1432.04 450.32 1432.59 449.12C1432.36 448.37 1431.91 447.66 1431.42 447.02Z" />
					<path id="Fill-15" fill-rule="evenodd" class="shp34" d="M1446.45 477.69C1446.39 477.49 1446.23 477.39 1446.03 477.37C1445.41 477.32 1444.99 477.39 1444.4 477.63C1444.17 477.73 1444.09 477.95 1444.12 478.15C1443.9 478.04 1443.6 478.09 1443.51 478.4C1442.96 480.18 1441.73 481.44 1440.41 482.7C1439.61 483.47 1438.63 484.25 1438.18 485.31C1437.51 486.9 1438.18 487.61 1439.7 487.23C1442.12 486.65 1444.42 485.27 1446.2 483.57C1446.72 483.07 1447.47 482.43 1447.57 481.65C1447.72 480.44 1446.8 478.82 1446.45 477.69Z" />
					<path id="Fill-17" fill-rule="evenodd" class="shp34" d="M1457.33 479.53C1456.92 478.11 1455.62 477.12 1454.4 478.47C1454.33 478.54 1454.31 478.61 1454.29 478.69C1454.09 478.7 1453.9 478.83 1453.92 479.1C1454.08 481.23 1453.78 483.14 1453.63 485.25C1453.55 486.31 1453.7 487.44 1454.23 488.37C1455.2 490.08 1456.5 489.22 1457.37 487.76C1458.8 485.38 1458.04 482.01 1457.33 479.53Z" />
					<path id="Fill-19" fill-rule="evenodd" class="shp34" d="M1452.15 421.49C1452.33 421.76 1455.25 425.66 1455.6 435.34C1455.96 445.02 1455.6 459.87 1455.6 459.87L1457.37 478.79C1457.37 478.79 1454.72 479.95 1453.57 479.33C1452.42 478.71 1448.44 455.28 1448.35 454.48C1448.26 453.68 1444.55 437.23 1444.55 437.23C1444.55 437.23 1445.08 456.35 1445.26 458.82C1445.43 461.29 1447.29 477.47 1447.2 477.91C1447.11 478.36 1443.93 479.31 1443.13 478.79C1442.34 478.27 1437.93 455.1 1437.7 452.8C1437.47 450.5 1434.93 432.41 1436.59 428.13C1438.26 423.84 1439.33 421.49 1439.33 421.49L1452.15 421.49Z" />
					<path id="Fill-21" fill-rule="evenodd" class="shp43" d="M1433.35 426.65C1432.94 425.48 1431.33 425.65 1430.77 426.55C1429.56 427.66 1428.26 428.62 1426.83 429.45C1426.43 429.67 1426.64 430.21 1427.04 430.25C1427.8 430.32 1428.36 429.8 1429.01 429.59C1428.58 430.75 1427.98 431.87 1427.65 433.05C1427.46 433.73 1427.39 434.5 1427.84 435.1C1428.92 436.53 1430.67 435.35 1431.27 434.13C1431.95 432.77 1432.24 431.11 1432.67 429.66C1432.91 428.86 1433.65 427.5 1433.35 426.65Z" />
					<path id="Fill-23" fill-rule="evenodd" class="shp43" d="M1462.01 435.15C1461.9 434.29 1461.28 429.86 1459.32 431.4C1459.22 431.48 1459.16 431.56 1459.1 431.65C1458.89 431.57 1458.63 431.64 1458.58 431.93C1458.16 434.09 1458.07 436.24 1458.32 438.42C1458.38 438.97 1459.25 438.97 1459.19 438.42C1459.04 437.15 1459.02 435.89 1459.11 434.63C1459.62 436.2 1459.77 437.69 1459.97 439.41C1460.04 439.98 1460.03 440.97 1460.83 440.97C1462.58 440.98 1462.13 436.12 1462.01 435.15Z" />
					<path id="Fill-25" fill-rule="evenodd" class="shp16" d="M1452.15 401.19C1452.15 401.19 1457.25 402.6 1458.48 406.7C1459.71 410.81 1460.7 418.01 1460.79 420.65C1460.89 423.3 1461.6 431.49 1461.6 431.49C1461.6 431.49 1460.84 434.42 1457.54 433C1457.44 427.43 1457.19 422.14 1456.56 419.97C1455.93 417.8 1454.61 412.51 1454.61 412.51C1454.61 412.51 1452.81 415.87 1452.91 417.37C1453.01 418.88 1453.47 423.84 1453.47 423.84C1453.47 423.84 1439.39 426.77 1438.25 423.84C1438.67 421.39 1438.67 419.5 1438.67 419.5L1434.09 427.95C1431.94 427.95 1430.21 426.31 1430.21 426.31C1430.21 426.31 1435.82 417.81 1435.92 415.62C1436.01 413.43 1436.05 404.4 1437.89 401.08C1439.73 397.75 1443.75 397.77 1443.75 397.77L1452.15 401.19Z" />
					<g id="Group-29">
						<g id="Clip-28">
						</g>
						<g id="Clip-Path: Fill-27" clip-path="url(#cp15)">
							<path id="Fill-27" fill-rule="evenodd" class="shp34" d="M1453.24 389.36C1452.32 385.96 1450.77 384.62 1448.25 384.06C1447.97 384 1446.7 383.95 1446.56 384.11C1445.02 383.93 1443.46 384.35 1442.2 385.56C1439.34 388.3 1439.37 394.23 1438.88 397.87C1438.63 399.71 1438.12 402.81 1440.79 403.04C1443.53 403.29 1444.71 399.37 1446.49 398.03C1447.04 397.62 1446.44 395.19 1448.56 397.81C1448.74 398.03 1449.02 399.32 1449.25 399.76C1449.83 400.93 1450.93 402.58 1452.1 403.26C1454.14 404.45 1455.61 402.92 1456.23 400.98C1457.64 396.6 1454.32 393.34 1453.24 389.36Z" />
						</g>
					</g>
					<path id="Fill-30" fill-rule="evenodd" class="shp43" d="M1450.45 393.48C1450.47 393.39 1450.45 393.31 1450.43 393.23C1450.94 391.19 1451.02 388.97 1449.71 387.44C1447.68 385.06 1444.57 386.19 1442.66 388.06C1442.58 387.65 1441.93 387.53 1441.82 388.01C1441.38 390.12 1441.24 392.23 1441.56 394.37C1441.77 395.8 1442.07 397.97 1443.22 399.03C1443.6 399.37 1444.15 399.63 1444.72 399.79C1444.9 400.71 1445.23 402.36 1445.99 402.81C1446.77 403.28 1448.18 402.94 1448.89 402.49C1451.59 400.78 1449.91 396.04 1450.45 393.48Z" />
					<path id="Fill-32" fill-rule="evenodd" class="shp34" d="M1451.34 390.47C1450.82 387.62 1450.08 385.93 1447.08 385.25C1446.96 385.22 1446.87 385.25 1446.79 385.29C1446.65 385.28 1446.53 385.33 1446.44 385.42C1443.25 384.75 1440.34 387.24 1440.66 390.61C1440.68 390.88 1440.91 391.1 1441.2 391.02C1442.51 390.66 1443.8 390.48 1445.16 390.49C1445.34 390.49 1445.47 390.38 1445.54 390.23C1445.57 390.45 1445.74 390.6 1445.96 390.62C1446.82 390.7 1447.67 390.8 1448.53 390.94C1448.72 392.58 1448.68 395.08 1448.88 396.47C1449.18 398.59 1449.11 401 1451.01 402.35C1451.29 402.55 1451.71 401.76 1451.77 401.5C1451.94 401.5 1452.1 401.41 1452.15 401.19C1452.84 397.8 1451.96 393.84 1451.34 390.47Z" />
				</g>
				<g id="Page-1">
					<g id="Group-5">
						<g id="Clip-4">
						</g>
						<g id="Clip-Path: Fill-3" clip-path="url(#cp16)">
							<path id="Fill-3" fill-rule="evenodd" class="shp21" d="M1258.94 314.13C1259.9 321.19 1259.05 328.34 1259.73 335.44C1259.87 336.95 1257.81 336.94 1257.67 335.44C1257.02 328.56 1257.89 321.59 1256.96 314.76C1256.76 313.27 1258.74 312.63 1258.94 314.13Z" />
						</g>
					</g>
					<path id="Fill-1" fill-rule="evenodd" class="shp10" d="M1251.32 271.98C1251.56 271.12 1251.8 270.25 1252.05 269.39C1252.04 269.34 1252.03 269.29 1252.03 269.23C1252.02 269.11 1252.08 269.04 1252.16 269C1252.3 268.47 1252.45 267.94 1252.6 267.41C1252.67 267.17 1252.8 267.01 1252.97 266.9C1253.73 262.54 1256.77 258.94 1261.1 257.49C1261.19 257.32 1261.41 257.23 1261.56 257.4C1261.62 257.47 1261.67 257.54 1261.72 257.61C1262.07 259.28 1262.28 261.31 1261.92 263.11C1262.07 264.39 1262.26 266.19 1262.11 266.41C1261.99 266.6 1261.45 266.76 1260.99 266.86C1260.54 268.46 1260.1 269.69 1259.75 270.33C1259.51 270.44 1259.25 270.51 1258.93 270.52C1258.68 270.52 1258.41 270.5 1258.13 270.47C1258.14 270.55 1257.98 271.01 1257.96 271.12C1257.8 271.95 1257.58 272.84 1257.03 273.43C1256.53 273.95 1255.65 273.5 1255.05 273.3C1254.47 273.1 1254 272.86 1253.6 272.56C1253.59 272.64 1253.57 272.72 1253.56 272.8C1253.42 273.67 1252.44 273.64 1251.97 273.12C1251.53 272.96 1251.17 272.52 1251.32 271.98Z" />
					<path id="Fill-6" fill-rule="evenodd" class="shp21" d="M1239.8 305.27C1240.01 303.77 1241.99 304.41 1241.79 305.89C1240.95 311.98 1240.79 318.2 1240.43 324.34C1240.34 325.85 1238.28 325.86 1238.37 324.34C1238.74 317.99 1238.94 311.57 1239.8 305.27Z" />
					<path id="Fill-8" fill-rule="evenodd" class="shp21" d="M1276.21 304.78C1276.77 311.76 1277.34 318.74 1277.9 325.72C1278.03 327.23 1275.97 327.22 1275.84 325.72C1275.28 318.74 1274.72 311.76 1274.15 304.78C1274.03 303.26 1276.09 303.27 1276.21 304.78Z" />
					<path id="Fill-10" fill-rule="evenodd" class="shp34" d="M1283.95 318.12C1283.95 318.12 1283.5 321.88 1283.74 322.61C1283.99 323.35 1285.67 324.23 1286.66 324.05C1287.64 323.88 1294.63 319.98 1294.87 319.59C1295.12 319.21 1295.79 317.73 1294.87 317.28C1293.96 316.82 1291.68 317.28 1289.5 317.63C1287.32 317.98 1286.45 316.64 1286.45 316.64L1283.95 318.12Z" />
					<path id="Fill-12" fill-rule="evenodd" class="shp8" d="M1255.97 314.2C1255.97 314.2 1259.6 314.51 1262.04 313.49C1264.48 312.47 1275.24 306.24 1276.03 305.73C1276.82 305.22 1278.12 304.31 1278.27 302.9C1278.41 301.48 1277.45 299.16 1277.45 299.16L1256.66 309.58L1255.97 314.2Z" />
					<path id="Fill-14" fill-rule="evenodd" class="shp34" d="M1254.91 301.85C1254.91 301.85 1256.6 308.86 1257.61 309.66C1258.62 310.47 1274.11 302.66 1276 301.85C1277.89 301.04 1279.23 300.71 1279.23 300.71L1283.61 318.96C1283.61 318.96 1287.32 318.69 1288.33 316.94C1289.34 315.19 1285.36 295.11 1284.35 294.1C1283.34 293.09 1270.27 293.63 1270.27 293.63L1254.91 301.85Z" />
					<path id="Fill-16" fill-rule="evenodd" class="shp10" d="M1278.43 283.32C1278.43 283.32 1279.71 279.83 1280.11 279.14C1280.5 278.45 1282.28 277.73 1282.77 277.7C1283.26 277.66 1287.44 278.85 1287.34 279.21C1287.24 279.57 1286.52 280.52 1286.06 280.65C1285.6 280.79 1285.04 280.36 1284.31 281.05C1283.59 281.74 1282.08 284.34 1281.39 284.53C1280.7 284.73 1278.43 283.32 1278.43 283.32Z" />
					<path id="Fill-18" fill-rule="evenodd" class="shp10" d="M1268.97 278.58C1269.07 278.58 1270.33 278.02 1271.1 277.25C1271.86 276.49 1272.86 275.29 1273.09 275.19C1273.32 275.09 1274.65 274.73 1275.81 274.96C1276.98 275.19 1278.35 275.82 1278.26 276.16C1278.17 276.49 1278.07 277.25 1277.51 277.48C1276.94 277.72 1274.85 277.85 1274.35 278.22C1273.85 278.58 1270.66 280.51 1270.66 280.51L1268.97 278.58Z" />
					<path id="Fill-20" fill-rule="evenodd" class="shp34" d="M1249.02 270.35C1251.73 270.46 1251.75 271.06 1254.3 271.85C1257.08 272.71 1260 273.28 1262.37 275.08C1263.86 276.2 1264.67 277.59 1265.37 279.18L1267.56 278.51C1268.15 278.33 1268.83 278.01 1269.47 278.08C1270.64 278.21 1271.61 279.29 1272.16 280.24C1272.19 280.3 1272.2 280.35 1272.2 280.4C1272.23 280.5 1272.22 280.62 1272.11 280.71C1270.69 281.97 1269.2 283.12 1267.64 284.17C1268.62 286.1 1269.72 287.96 1270.95 289.75C1273.52 287.6 1275.88 285.26 1278.05 282.7C1278.36 282.34 1278.91 282.35 1279.3 282.54L1281.62 283.7C1282.1 283.93 1282.29 284.67 1281.99 285.1C1279.36 288.99 1274.91 295.74 1269.79 296.4C1269.36 296.46 1268.95 296.45 1268.54 296.38C1267.88 299.01 1265.57 301.28 1262.95 302.69C1260.14 303.44 1257.75 303.59 1255.93 303.52C1250.31 298.75 1247.05 292.16 1244.6 285.26C1243.07 280.95 1241.56 271.94 1247.49 270.6C1247.98 270.44 1248.55 270.33 1249.02 270.35Z" />
					<g id="Group-24">
						<g id="Clip-23">
						</g>
						<g id="Clip-Path: Fill-22" clip-path="url(#cp17)">
							<path id="Fill-22" fill-rule="evenodd" class="shp34" d="M1256.67 263.3C1256.48 263.08 1256.04 262.94 1255.9 262.96C1255.34 262.89 1255.13 263.81 1255.23 264.51C1255.22 264.79 1255.33 265.12 1255.42 265.38C1255.57 265.84 1255.82 266.26 1255.85 266.75C1255.88 267.25 1255.74 267.69 1255.53 268.11C1254.35 269.56 1253.09 269.93 1252.18 269.96C1251.45 269.3 1250.85 268.19 1250.59 267.66C1249.58 265.63 1249.26 263.63 1249.42 261.38C1249.55 259.72 1249.48 257.11 1250.56 255.75C1251.64 254.38 1253.85 253.96 1255.48 254C1257.48 254.05 1259.83 254.77 1261.42 256.01C1261.85 256.35 1262.68 257.08 1262.55 257.73C1262.52 257.85 1262.44 257.97 1262.33 258.08C1261.7 259.08 1260.29 259.31 1259.18 259.62C1258.56 260.08 1258.47 260.95 1258.38 261.7C1258.32 262.27 1257.67 265.58 1257.03 264.49C1256.92 264.31 1256.93 263.52 1256.67 263.3Z" />
						</g>
					</g>
					<g id="Group-27">
						<g id="Clip-26">
						</g>
						<g id="Clip-Path: Fill-25" clip-path="url(#cp18)">
							<path id="Fill-25" fill-rule="evenodd" class="shp9" d="M1236.36 276.69C1236.36 276.69 1249.88 283.73 1251.19 285.32C1252.51 286.91 1257.22 302.91 1257.49 304.64C1257.77 306.37 1258.53 310.04 1258.4 310.74C1258.26 311.43 1256.66 314.13 1255.97 314.2C1255.28 314.27 1238.62 306.44 1237.95 304.85C1237.27 303.26 1231.73 280.13 1232.01 279.5C1232.29 278.88 1233.94 277.72 1236.36 276.69Z" />
						</g>
					</g>
					<path id="Fill-28" fill-rule="evenodd" class="shp8" d="M1240.25 283.94C1245.86 287.05 1247.87 286.91 1248.63 289.41C1249.33 291.69 1255.5 307.79 1256.25 314.07C1256.15 314.14 1256.05 314.19 1255.97 314.2C1255.28 314.27 1238.62 306.44 1237.95 304.85C1237.31 303.34 1232.32 282.57 1232.02 279.81C1234.21 280.81 1237.26 282.27 1240.25 283.94Z" />
				</g>
				<g id="Page-1">
					<path id="Fill-1" class="shp20" d="M1112.22 194.69L1093.38 205.68L1074.39 194.47L1093.38 183.7L1112.22 194.69Z" />
					<path id="Fill-2" class="shp30" d="M1112.22 213.23L1093.31 223.7L1093.38 205.68L1112.22 194.69L1112.22 213.23Z" />
					<path id="Fill-3" class="shp31" d="M1093.38 205.68L1093.31 223.7L1074.39 212.64L1074.39 194.47L1093.38 205.68Z" />
					<g id="Group-21">
						<path id="Fill-4" fill-rule="evenodd" class="shp34" d="M1098.5 180.96C1098.5 180.96 1110.17 178.43 1110.95 178.43C1111.72 178.43 1115.73 178.64 1116.08 179.35C1116.44 180.05 1115.17 187.44 1115.17 187.44L1097.72 188.35L1098.5 180.96Z" />
						<path id="Fill-6" fill-rule="evenodd" class="shp16" d="M1119.22 206.34C1119.22 206.34 1120.18 207.25 1121.23 207.53C1122.28 207.8 1125.66 207.16 1126.52 207.48C1127.39 207.8 1127.76 208.71 1127.76 208.71C1127.76 208.71 1127.94 209.08 1126.8 209.99C1125.66 210.9 1125.06 211.27 1122.55 211.91C1120.05 212.54 1115.98 213.47 1115.19 212.49C1114.41 211.52 1115.72 208.03 1115.72 208.03L1119.22 206.34Z" />
						<path id="Fill-8" fill-rule="evenodd" class="shp34" d="M1102.85 183.09L1115.12 184.33C1115.12 184.33 1120.74 184.85 1121.92 185.8C1123.11 186.75 1124.35 188.61 1124.25 190.75C1124.16 192.89 1119.83 206.63 1119.83 206.63C1119.83 206.63 1120.19 208.89 1115.22 209.48C1114.27 207.41 1115.22 191.6 1115.22 191.6C1115.22 191.6 1115.22 191.32 1114.41 191.32C1113.6 191.32 1109.36 193.89 1107.6 194.47C1105.84 195.04 1099.91 197.36 1098.24 197.22C1096.58 197.08 1089.1 194.98 1088.15 193.88C1087.2 192.79 1086.51 189.84 1086.61 189.27C1086.7 188.7 1087.98 184.9 1087.98 184.9L1102.85 183.09Z" />
						<path id="Fill-10" fill-rule="evenodd" class="shp10" d="M1100.57 160.24C1100.7 160.21 1102.3 157.09 1102.3 157.09C1102.3 157.09 1106.7 156.23 1107.31 155.6C1107.91 154.97 1111.29 146.87 1111.29 146.87C1111.29 146.87 1112.57 149.39 1112.55 150.67C1112.52 151.96 1112.18 153.5 1112.21 153.77C1112.23 154.03 1112.5 156.31 1112.34 156.49C1112.18 156.68 1111.03 156.62 1111 156.73C1110.98 156.83 1109.72 160.03 1109.3 160.08C1108.88 160.14 1107.02 159.51 1107.02 159.51L1105.89 162.57L1100.57 160.24Z" />
						<g id="Group-14">
							<g id="Clip-13">
							</g>
							<g id="Clip-Path: Fill-12" clip-path="url(#cp19)">
								<path id="Fill-12" fill-rule="evenodd" class="shp10" d="M1121.03 168.28C1121.44 166.47 1121.8 164.86 1122.94 163.34C1123.63 162.42 1125.28 160.18 1126.57 160.08C1127.56 160 1127.9 161.53 1127.99 162.3C1128.16 163.79 1126.25 165.11 1125.31 166.09C1124.7 167.58 1123.98 170.34 1122.05 169.34C1121.82 169.21 1121.65 169.06 1121.52 168.9C1121.23 168.88 1120.95 168.64 1121.03 168.28Z" />
							</g>
						</g>
						<path id="Fill-15" fill-rule="evenodd" class="shp34" d="M1101.96 175.23C1102.4 170.68 1102.8 167.1 1104.02 162.69C1104.04 162.62 1104.51 161.07 1105.01 161.01C1105.24 160.98 1106.32 161.87 1106.41 161.94C1109.02 163.92 1110.26 164.27 1111.78 167.2C1112.46 168.49 1113.47 170.46 1114.27 171.68C1115.27 173.22 1115.84 174.31 1116.85 175.83C1118.25 173.13 1119.82 170.8 1120.73 167.89C1120.84 167.56 1123.23 168.58 1124.1 169.17C1124.27 169.29 1120.64 181.04 1118.6 183.5C1116.55 185.97 1114.49 183.01 1113.52 181.42C1112.51 179.76 1110.55 177.48 1109.31 176.01C1108.45 178.15 1107.51 178.51 1106.52 179.6C1105.33 180.9 1104.89 182.58 1104.57 184.27C1104.54 184.42 1104.46 184.52 1104.36 184.58C1104.16 184.9 1104.03 184.99 1103.53 185.13C1103.36 185.17 1103.16 185.12 1103.04 185C1102.19 184.12 1102.17 182.3 1101.95 181.15C1101.57 179.14 1101.76 177.26 1101.96 175.23Z" />
						<path id="Fill-17" fill-rule="evenodd" class="shp34" d="M1098.19 159.5C1098.3 159.4 1099.1 158.5 1099.38 158.5C1099.67 158.5 1106.13 161.72 1106.93 162.57C1107.74 163.43 1107.8 176.34 1107.18 176.29C1106.56 176.24 1104.78 182.64 1104.68 183.26C1104.59 183.88 1103.9 188.37 1101.86 188.99C1099.81 189.61 1095.2 191.94 1093.11 191.55C1091.01 191.17 1086.96 188.14 1086.96 188.14C1086.96 188.14 1089.63 179.81 1090.54 176C1091.44 172.2 1092.54 165.4 1094.15 163.64C1095.77 161.88 1097.63 160.04 1098.19 159.5Z" />
						<path id="Fill-19" fill-rule="evenodd" class="shp27" d="M1095.39 156.34C1095.8 155.5 1096.55 155.04 1097.05 154.3C1097.88 153.07 1097.96 151.59 1098.46 150.24C1099.51 147.4 1101.42 144.45 1104.26 143.47C1104.84 143.23 1105.64 143.05 1106.26 143.01C1107.12 142.94 1108.98 143.34 1110.4 144.2C1111.31 144.75 1112.09 145.32 1112.39 145.99C1112.7 146.67 1112.75 147.77 1112.43 148.03C1112.1 148.29 1111.28 148.47 1110.79 148.92C1110.57 149.12 1110.28 149.88 1110.01 150.66C1109.68 152.04 1109.61 153.45 1109.38 155.05C1109.13 156.73 1108.57 158.3 1107.17 159.34C1106.73 159.67 1106.18 160.01 1105.55 160.33C1105.33 160.52 1105.1 160.7 1104.84 160.86C1102.39 162.46 1097.39 163.76 1095.48 160.75C1094.62 159.4 1094.7 157.74 1095.39 156.34Z" />
					</g>
				</g>
				<g id="kubik">
					<path id="Fill-86" class="shp1" d="M130.63 624.04L0.09 698.94L129.72 774.47L259.36 697.69L130.63 624.04Z" />
					<g id="Group-91">
						<g id="Clip-90">
						</g>
						<g id="Clip-Path: Fill-89" clip-path="url(#cp20)">
							<path id="Fill-89" class="shp44" d="M0.09 821.05L129.72 893.75L129.72 774.47L0.09 698.95L0.09 821.05Z" />
						</g>
					</g>
					<g id="Group-94">
						<path id="Fill-92" class="shp45" d="M129.72 774.44L129.72 893.93L259.3 817.26L259.3 697.69L129.72 774.44Z" />
					</g>
					<g id="antena">
						<path id="Stroke-75" fill-rule="evenodd" class="shp46" d="M130.07 689.73L130.07 601.45" />
						<path id="Fill-76" fill-rule="evenodd" class="shp47" d="M121.46 591.62C126.36 583.13 134.65 578.74 139.98 581.82C145.31 584.9 145.66 594.27 140.76 602.76C135.86 611.25 127.57 615.63 122.24 612.56C116.91 609.48 116.56 600.11 121.46 591.62Z" />
						<path id="Fill-79" fill-rule="evenodd" class="shp48" d="M125.31 593.86C128.24 588.79 133.19 586.17 136.37 588.01C139.56 589.85 139.77 595.45 136.84 600.52C133.91 605.59 128.96 608.21 125.77 606.37C122.59 604.53 122.38 598.93 125.31 593.86Z" />
						<path id="Fill-83" fill-rule="evenodd" class="shp49" d="M127.96 595.31C129.56 592.54 132.27 591.11 134 592.11C135.74 593.12 135.86 596.17 134.26 598.94C132.66 601.71 129.95 603.14 128.21 602.14C126.48 601.13 126.36 598.08 127.96 595.31Z" />
					</g>
				</g>
				<g id="wieza-2">
					<path id="Fill-50" class="shp50" d="M1389.99 757.32L1389.99 847.23L1467.98 802.96L1467.98 711.92L1389.99 757.32Z" />
					<path id="Fill-53" class="shp51" d="M1313 810.78L1390.01 858.23L1390.01 757.34L1313 713L1313 810.78Z" />
					<path id="Fill-47" class="shp1" d="M1468 711.93L1389.96 667L1312.68 712.93L1389.96 757.34L1468 711.93Z" />
					<path id="Stroke-85" fill-rule="evenodd" class="shp52" d="M1390.03 713L1390.03 624.72" />
					<path id="Fill-87" fill-rule="evenodd" class="shp53" d="M1399.64 616.98C1394.74 608.49 1386.45 604.1 1381.12 607.18C1375.79 610.25 1375.44 619.63 1380.34 628.12C1385.24 636.61 1393.53 640.99 1398.86 637.91C1404.19 634.84 1404.54 625.46 1399.64 616.98Z" />
					<path id="Fill-89" fill-rule="evenodd" class="shp54" d="M1395.79 619.22C1392.86 614.15 1387.91 611.53 1384.72 613.37C1381.54 615.2 1381.33 620.8 1384.26 625.87C1387.19 630.95 1392.14 633.57 1395.33 631.73C1398.51 629.89 1398.72 624.29 1395.79 619.22Z" />
					<path id="Fill-91" fill-rule="evenodd" class="shp10" d="M1393.14 620.66C1391.54 617.9 1388.83 616.47 1387.09 617.47C1385.36 618.47 1385.24 621.53 1386.84 624.3C1388.44 627.07 1391.14 628.5 1392.88 627.5C1394.62 626.49 1394.74 623.43 1393.14 620.66Z" />
				</g>
			</g>
		</g>
		<text id=" " style="transform: matrix(1,0,0,1,185,96)" >
		</text>
		<text id="Text layer 418" style="transform: matrix(1,0,0,1,49.75,139.625)" >
			<tspan x="0" y="0" class="txt55">What is INNERVE 2k19 ?</tspan>
			<tspan x="0" y="60.48" class="txt56">Innerve 2k19 Hackathon provides you the platform to</tspan>
			<tspan x="0" y="94.08" class="txt56"> showcase your ideas and technical skills at a recognized level.</tspan>
			<tspan x="0" y="127.68" class="txt56"> This is the perfect opportunity to get those brilliant ideas out of </tspan>
			<tspan x="0" y="161.28" class="txt56">your amazing minds and onto the computer screens. Coming</tspan>
			<tspan x="0" y="194.88" class="txt56"> again this year Innerve brings you with more interesting and </tspan>
			<tspan x="0" y="228.48" class="txt56">challenging problem statements than ever before. So get ready</tspan>
			<tspan x="0" y="262.08" class="txt56"> for Innerve 4.0 to exhilarate you with newer ideas,more rewards</tspan>
			<tspan x="0" y="295.68" class="txt56"> and a fun packed experience.</tspan>
		</text>
	</g>
</svg>