<?xml version="1.0"?><svg width="600" height="600" xmlns="http://www.w3.org/2000/svg">
 <title>Green Yellow</title>
 <metadata id="metadata7">image/svg+xml</metadata>
 <g>
  <title>Layer 1</title>
  <g transform="rotate(-45.7575 317.371 285.186)" id="svg_1">
   <path d="m189.296997,483.018005c-3.054993,-3.884003 -4.502991,-12.341003 -3.261993,-19.054016c1.234985,-6.679993 1.654999,-7.527985 14.457001,-29.149994c18.921997,-31.959991 25.661011,-49.127991 38.809998,-98.858002c0.575989,-2.179993 -2.219025,-4.903992 -5.03302,-4.903992c-3.656982,0 -6.455963,2.729004 -8.207977,8.003998c-1.975983,5.950012 -3.271027,7.165985 -8.355988,7.847992c-4.851013,0.651001 -10.630005,-1.665985 -12.937012,-5.186005c-1.631012,-2.48999 -1.626007,-3.128998 0.095001,-11.605988c1.719971,-8.470001 1.726013,-9.221985 0.11499,-13.44101c-4.787994,-12.536987 -16.608002,-14.028992 -23.388977,-2.951996c-4.561005,7.451019 -14.49704,20.244019 -20.251007,26.074005c-10.187012,10.320007 -16.846008,10.649994 -23.710999,1.173004c-2.27002,-3.13501 -3.01001,-5.265015 -3.01001,-8.666992c0,-3.920013 0.496002,-4.966003 3.787994,-7.992004c4.850006,-4.457001 11.691986,-8.26001 22.476013,-12.493011c14.682983,-5.763 21.148987,-10.882996 24.80899,-19.643005c2.721985,-6.514984 1.455994,-14.513977 -2.644012,-16.709991c-6.023987,-3.223999 -13.11499,2.186005 -25.188995,19.214996c-11.200989,15.799011 -17.260986,19.675018 -29.77301,19.042999c-8.648987,-0.436981 -12.750977,-2.752991 -17.47699,-9.867981c-4.30899,-6.488007 -5.553986,-11.253021 -5.121979,-19.603027c0.319,-6.151001 0.859985,-7.940979 3.598969,-11.904999c3.833008,-5.546997 10.790009,-10.220001 18.52301,-12.440979c3.157013,-0.907013 12.891998,-2.016998 22.223999,-2.536011c20.640015,-1.145996 26.993011,-2.399994 49.678009,-9.806c11.467987,-3.743988 14.910004,-6.31601 14.910004,-11.141998c0,-2.925995 -4.171021,-7.050995 -7.908997,-7.822998c-2.746002,-0.568008 -23.531006,-2.597 -26.611023,-2.598007c-2.805969,-0.001999 -7.78299,-4.947998 -8.843994,-8.789001c-1.526978,-5.530991 0.713989,-9.994995 5.69101,-11.334991c5.298004,-1.427002 9.218994,-0.188004 18.996002,6c4.437988,2.809006 11.164001,6.052002 14.944977,7.205994c6.602997,2.014008 7.054016,2.029007 11.365997,0.382004c8.677032,-3.313004 9.722015,-9.158005 3.730042,-20.854996c-4.944,-9.650009 -14.039032,-19.369003 -21.787018,-23.279999c-11.696991,-5.904007 -19.31601,-15.281006 -24.082001,-29.637009c-1.89801,-5.714996 -2.34198,-9.201996 -2.319,-18.182999c0.026001,-9.849991 0.332977,-11.76799 2.701996,-16.893997c5.906982,-12.780998 17.622986,-13.135002 25.222992,-0.764999c2.436005,3.966003 3.173004,7.345001 5.945007,27.255997c3.628998,26.076996 5.018005,30.371002 13.054993,40.376999c8.321991,10.359009 15.644989,13.679001 20.178009,9.146011c2.971008,-2.971008 3.393005,-6.228012 1.589996,-12.272003c-0.890991,-2.987 -1.881012,-8.613998 -2.200012,-12.503006c-0.50296,-6.115997 -0.15799,-8.380005 2.553009,-16.772003c5.080017,-15.727997 4.084015,-22.526993 -5.570007,-38.015991c-5.61499,-9.010002 -6.158997,-12.933006 -2.358002,-17.001007c4.731018,-5.064995 11.524017,-7.065994 13.972015,-4.115997c0.777008,0.936005 1.059998,7.583 0.893982,20.959999c-0.269958,21.644005 -0.633972,20.006996 7.821014,35.247002c2.90802,5.240997 5.503998,16.399994 5.528992,23.766998c0.01001,2.906006 0.682007,6.026001 1.570007,7.294006c2.809021,4.011993 12.39801,5.151993 16.445007,1.955994c0.730988,-0.578003 3.321991,-4.130005 5.756012,-7.893997c2.53299,-3.914001 6.172974,-7.998001 8.506989,-9.542999c3.497009,-2.313995 4.867004,-2.634995 9.584991,-2.242996c4.587006,0.37999 6.19101,1.074997 9.612,4.166c3.227997,2.916992 4.937012,3.709991 7.986023,3.709991c8.077026,0 17.328003,-7.673996 17.328003,-14.373993c0,-1.631012 -1.369019,-6.083008 -3.041992,-9.895004c-4.492065,-10.235001 -4.746033,-14.143005 -1.541992,-23.727997c5.523926,-16.528 10.472961,-21.121002 22.766968,-21.127007c10.223999,-0.004997 17.243042,4.875999 19.023987,13.227005c1.192017,5.588997 0.325989,9.737999 -4.60498,22.056999c-10.721008,26.789001 -11.383972,35.091995 -3.438049,43.039001c2.044067,2.043991 5.62207,4.287003 7.95105,4.985001c6.84198,2.050003 11.716003,-0.423996 21.013977,-10.665009c9.291016,-10.235001 14.075012,-12.690994 19.940979,-10.23999c3.096069,1.292999 3.860046,2.294998 5.206055,6.826996c0.866943,2.921997 1.577026,6.427002 1.577026,7.787994c0,10.743011 -9.874023,21.391998 -22.728027,24.514999c-2.778015,0.675003 -7.227051,2.312012 -9.885986,3.638c-15.251038,7.604004 -8.785034,23.460007 9.594971,23.529999c8.146973,0.032013 15.197021,-2.963989 24.028992,-10.210999c16.075989,-13.189987 35.880005,-27.304001 43.777039,-31.196991c12.679932,-6.251999 29.987976,-8.64801 42.16394,-5.837997c12.562012,2.899994 17.426025,15.565994 10.953003,28.524994c-3.388,6.785004 -4.380981,7.085007 -16.411987,4.968994c-19.296997,-3.394989 -36.134033,-1.873993 -52.935974,4.783005c-14.105042,5.589005 -29.299988,13.826004 -31.90802,17.296997c-5.372986,7.152008 -4.074951,14.696991 3.386963,19.688019c9.006042,6.02298 11.238037,8.610992 11.811035,13.692993c0.760986,6.748993 -0.987,10.018005 -7.987,14.927979c-9.234985,6.47702 -11.89801,12.414001 -8.501038,18.944c2.110046,4.054016 5.514038,6.864014 11.716064,9.667999c8.11499,3.669006 13.704956,4.19101 22.918945,2.141022c11.027039,-2.453003 18.682007,-1.688019 26.237061,2.621979c12.352966,7.047028 18.896973,15.598022 23.12793,30.219025c1.468018,5.071991 1.89209,9.783997 1.865051,20.707977c-0.039001,15.96701 -1.291992,20.920013 -6.703003,26.502014c-12.257996,12.64801 -31.041016,-4.720001 -37.610046,-34.777008c-2.833984,-12.967987 -6.041992,-20.002991 -11.55896,-25.347992c-7.219971,-6.996002 -25.113037,-14.187012 -32.057983,-12.884003c-4.432983,0.830994 -11.06604,7.493011 -12.460999,12.515991c-2.351013,8.463013 -0.758972,13.710999 7.566956,24.951996c15.840027,21.38501 20.411987,30.160004 21.442993,41.160004c0.661011,7.054016 -0.559937,9.776001 -5.651001,12.59201c-5.161987,2.855988 -9.435974,3.566986 -14.020996,2.332001c-5.42395,-1.460999 -8.5,-5.016998 -8.965942,-10.364014c-2.437988,-28.013 -4.16803,-35.15799 -10.225037,-42.233978c-6.320984,-7.384003 -16.644958,-10.13501 -24.976013,-6.654022c-6.460938,2.700012 -7.597961,6.493011 -6.106934,20.361023c0.536987,4.993988 0.399963,7.832977 -0.455078,9.429993c-1.284973,2.402008 -6.66095,5.143982 -10.083984,5.143982c-5.492981,0 -13.708984,-12.642975 -18.209961,-28.020996c-2.744995,-9.380981 -5.406982,-12.586975 -10.452026,-12.586975c-5.723999,0 -8.475006,2.373993 -10.391998,8.96698c-2.632996,9.057007 -1.580994,17.463013 4.402008,35.177002c5.833984,17.272003 6.572021,19.050995 15.924011,38.38501c5.258972,10.872009 6.948975,15.460999 7.307983,19.843994c0.61499,7.494995 -1.143005,12.627991 -5.166992,15.080994c-6.09198,3.714996 -9.789978,2.074005 -14.622009,-6.488983c-4.695007,-8.319 -6.102997,-14.819 -7.18399,-33.167999c-1.537018,-26.077026 -6.808014,-48.921997 -15.756989,-68.292999c-4.365021,-9.445007 -5.997009,-11.322021 -9.847015,-11.322021c-8.031006,0 -14.174011,8.27002 -14.256012,19.193024c-0.043976,5.913971 0.373016,7.297974 4.195007,13.938995c2.334015,4.054993 4.936005,9.411987 5.782013,11.903992c1.553986,4.57901 1.914001,15.973999 0.651001,20.623993c-1.058014,3.895996 -6.436005,6.057007 -15.072998,6.059021c-9.207001,0.001984 -12.541016,-1.595001 -14.723999,-7.051025c-2.63501,-6.584991 -2.058014,-12.872986 2.399994,-26.16098c4.730988,-14.10202 5.395996,-23.808014 2.125,-31.01001c-2.011017,-4.428986 -6.39502,-8.506989 -9.143005,-8.506989c-5.925018,0 -15.029999,19.970001 -21.765015,47.738983c-3.591003,14.804016 -4.813965,21.875 -9.040985,52.265991c-2.817017,20.26001 -4.423981,25.96701 -9.139008,32.46402c-6.619995,9.122009 -21.936981,13.360992 -26.645996,7.375l0,0z" stroke-width="0" stroke-miterlimit="4" stroke-dashoffset="0" stroke="#00bf00" fill-rule="evenodd" fill="#ffff00" id="svg_5"/>
  </g>
 </g>
</svg>